<svg xmlns="http://www.w3.org/2000/svg" viewBox="0 0 907.71467 721.72145" height="203.69mm" width="256.18mm" version="1.1">
 <g transform="translate(2594.1 -97.579)">
  <g aria-label="Rules and plugins" transform="matrix(.89834 0 0 .89834 -1582.4 162.16)" fill="#237de0"></g>
  <g transform="matrix(1.7744 0 0 1.7744 726.63 -186.48)" stroke-width="1.7385" fill="#305680">
   <path d="m-1739 304.98c-9.5966 0-17.368 7.7886-17.368 17.385 0 9.5966 7.7712 17.385 17.368 17.385 9.6141 0 17.403-7.7886 17.403-17.385 0-9.5966-7.7885-17.385-17.403-17.385zm0.017 31.293c-7.6842 0-13.908-6.2239-13.908-13.908 0-7.6842 6.2239-13.908 13.908-13.908 7.6843 0 13.908 6.2239 13.908 13.908 0 7.6843-6.2239 13.908-13.908 13.908z"/>
   <path d="m-1738.1 313.67h-2.6078v10.431l9.1272 5.4763 1.3039-2.1384-7.8233-4.6418z"/>
  </g>
  <rect stroke-linejoin="round" height="112.28" width="113.18" stroke="#305680" stroke-linecap="round" y="321.3" x="-2415.6" stroke-width="3.2991" fill="none"/>
  <g style="font-variant-ligatures:normal;letter-spacing:0px;font-variant-numeric:normal;word-spacing:0px;font-variant-caps:normal;font-feature-settings:normal" font-family="Roboto" transform="matrix(.91533 0 0 .91533 -1962.3 118.44)" line-height="125%" font-size="16.396px" font-weight="500" fill="#237de0">
   <text style="font-variant-ligatures:normal;letter-spacing:0px;font-variant-numeric:normal;word-spacing:0px;font-variant-caps:normal;font-feature-settings:normal" font-family="Roboto" xml:space="preserve" font-size="18.881px" line-height="125%" y="243.46715" x="-476.02536" font-weight="500" fill="#237de0"><tspan style="font-variant-numeric:normal;font-variant-ligatures:normal;font-variant-caps:normal;font-feature-settings:normal" font-family="Roboto" font-weight="500" font-size="18.881px" y="243.46715" x="-476.02536" stroke-width="1.1801px" fill="#237de0">Scheduler</tspan></text>
  </g>
  <rect stroke-linejoin="round" height="114.45" width="119.84" stroke="#305680" stroke-linecap="round" y="99.025" x="-2192.4" stroke-width="2.8927" fill="none"/>
  <g style="font-variant-ligatures:normal;letter-spacing:0px;font-variant-numeric:normal;word-spacing:0px;font-variant-caps:normal;font-feature-settings:normal" font-family="Roboto" transform="matrix(.83704 0 0 .83704 -1787.1 -85.608)" font-size="16.396px" line-height="125%" font-weight="500" fill="#237de0">
   <text style="font-variant-ligatures:normal;letter-spacing:0px;font-variant-numeric:normal;word-spacing:0px;font-variant-caps:normal;font-feature-settings:normal" font-family="Roboto" xml:space="preserve" font-size="18.881px" line-height="125%" y="243.46715" x="-476.02536" font-weight="500" fill="#237de0"><tspan style="font-variant-numeric:normal;font-variant-ligatures:normal;font-variant-caps:normal;font-feature-settings:normal" font-family="Roboto" font-weight="500" font-size="18.881px" y="243.46715" x="-476.02536" stroke-width="1.1801px" fill="#237de0">Reports Server</tspan></text>
  </g>
  <g transform="matrix(1.1575 0 0 1.1575 -2096.1 -794.45)">
   <path d="m395.78 491.75c-7.3293 0-13.271 5.9392-13.271 13.27 0 7.3283 5.9422 13.271 13.271 13.271 7.3293 0 13.271-5.9432 13.271-13.271 0-7.3303-5.9422-13.27-13.271-13.27zm1.6973 5.6133c0.0436-0.005 0.0879 0.00073 0.13282 0.0156l0.6914 0.18945c0.0957 0.0298 0.17103 0.0872 0.21875 0.17188 0.048 0.0868 0.0572 0.1767 0.0274 0.27343l-4.1621 14.404c-0.0299 0.0967-0.0861 0.16807-0.17188 0.2168-0.0857 0.0487-0.17393 0.0574-0.26172 0.0273l-0.6914-0.18945c-0.0977-0.0298-0.17077-0.0881-0.21875-0.17383-0.0498-0.0855-0.0573-0.17478-0.0274-0.27148l4.1621-14.404c0.0299-0.0957 0.0861-0.16806 0.17188-0.2168 0.0418-0.0244 0.0853-0.0384 0.1289-0.043zm-6.3379 2.0898c0.0957 0 0.1821 0.0366 0.25586 0.11133l0.55859 0.55859c0.0738 0.0737 0.11133 0.16017 0.11133 0.25586 0 0.0965-0.0376 0.18406-0.11133 0.25781l-4.3848 4.3828 4.3848 4.3848c0.0738 0.0737 0.11133 0.16111 0.11133 0.25781 0 0.0957-0.0376 0.18107-0.11133 0.25586l-0.55859 0.55664c-0.0738 0.0758-0.16016 0.11328-0.25586 0.11328-0.0977 0-0.18211-0.0375-0.25586-0.11328l-5.2012-5.1973c-0.0738-0.0737-0.11133-0.16108-0.11133-0.25782 0-0.0967 0.0376-0.18207 0.11133-0.25586l5.2012-5.1992c0.0738-0.0748 0.15811-0.11133 0.25586-0.11133zm9.2812 0c0.0977 0 0.18201 0.0366 0.25781 0.11133l5.1973 5.1992c0.0758 0.0738 0.11328 0.15916 0.11328 0.25586s-0.0375 0.18409-0.11328 0.25782l-5.1973 5.1973c-0.0758 0.0758-0.16007 0.11328-0.25781 0.11328-0.0957 0-0.18032-0.0375-0.25586-0.11328l-0.55859-0.55664c-0.0738-0.0748-0.10938-0.16013-0.10938-0.25586 0-0.0967 0.0356-0.18406 0.10938-0.25781l4.3867-4.3848-4.3867-4.3828c-0.0738-0.0737-0.10938-0.16134-0.10938-0.25781 0-0.0957 0.0356-0.18212 0.10938-0.25586l0.55859-0.55859c0.0755-0.0748 0.16016-0.11133 0.25586-0.11133z" fill-opacity=".94118" transform="translate(-415.76 341.57)" fill="#237de0"/>
   <g fill="#305680">
    <path d="m-47.521 836.82c0-0.95193 0.77379-1.7234 1.7257-1.7234h15.722c-1.1357 0.99785-2.1185 2.1593-2.9191 3.4501h-12.803c-0.95193 0-1.7257-0.77146-1.7257-1.7267z"/>
    <path d="m-22.606 829.06c0 0.95016-0.77149 1.7227-1.7244 1.7227h-21.45c-0.95116 0-1.7227-0.77251-1.7227-1.7227 0-0.95293 0.7715-1.7267 1.7227-1.7267h21.45c0.95295 0 1.7244 0.7738 1.7244 1.7267z"/>
    <path d="m-22.597 821.01c0 0.95294-0.77277 1.7265-1.7257 1.7265h-21.466c-0.95116 0-1.7237-0.77356-1.7237-1.7265 0-0.95217 0.77251-1.7237 1.7237-1.7237h21.466c0.95294 0 1.7257 0.7715 1.7257 1.7237z"/>
    <path d="m-34.823 842.87c-0.27715 1.1086-0.44049 2.2611-0.4604 3.4504h-10.513c-0.95192 0-1.7257-0.77151-1.7257-1.7267 0-0.95194 0.77379-1.7237 1.7257-1.7237z"/>
    <path d="m363.91 457.04c-2.3316 0-4.2305 1.8986-4.2305 4.2305v52.787c0 2.3357 1.8989 4.2324 4.2305 4.2324h24.266c-1.6109-0.92715-3.0426-2.1271-4.2168-3.5527h-20.049c-0.37286 0-0.67773-0.30782-0.67773-0.67968v-52.787c0-0.37388 0.30487-0.67578 0.67773-0.67578h24.422v10.291c0 0.97896 0.80033 1.7734 1.7793 1.7734h9.2656v17.492c1.249 0.30218 2.4431 0.74663 3.5527 1.3359v-21.363l-12.041-13.084zm27.979 6.3301 5.2754 5.7383h-5.2754z" transform="translate(-415.76 341.57)"/>
   </g>
  </g>
  <path d="m-2295.5 379.76s63.41-0.24902 82.558-0.36894c-0.5922 1.4248-1.208 2.8434-1.796 4.2712 5.4524-2.267 10.897-4.5438 16.346-6.8172-5.646-1.895-11.311-3.7542-16.97-5.6219 0.7272 1.3791 1.4837 2.7487 2.2184 4.1254-19.148 0.13664-82.558 0.36785-82.558 0.36785z" stroke-width=".80556" fill="#305680"/>
  <g style="font-variant-ligatures:normal;letter-spacing:0px;font-variant-numeric:normal;word-spacing:0px;font-variant-caps:normal;font-feature-settings:normal" font-family="Roboto" transform="matrix(1.5769 0 0 1.5769 -1562.8 -33.875)" line-height="125%" font-size="16.396px" font-weight="500" fill="#237de0">
   <text style="font-variant-ligatures:normal;letter-spacing:0px;font-variant-numeric:normal;text-anchor:middle;word-spacing:0px;font-variant-caps:normal;font-feature-settings:normal;text-align:center" font-family="Roboto" xml:space="preserve" font-size="11.505px" line-height="125%" y="254.09483" x="-438.92722" font-weight="500" fill="#237de0"><tspan style="font-variant-numeric:normal;text-anchor:middle;font-variant-ligatures:normal;font-variant-caps:normal;font-feature-settings:normal;text-align:center" font-family="Roboto" font-weight="500" font-size="11.505px" y="254.09483" x="-437.48911" stroke-width=".71904px" fill="#237de0">Message </tspan></text>
  </g>
  <g style="font-variant-ligatures:normal;letter-spacing:0px;font-variant-numeric:normal;word-spacing:0px;font-variant-caps:normal;font-feature-settings:normal" font-family="Roboto" transform="matrix(.69301 .40011 -.40011 .69301 -2054.8 326)" line-height="125%" font-size="16.396px" font-weight="500" fill="#237de0">
   <text style="font-variant-ligatures:normal;letter-spacing:0px;font-variant-numeric:normal;text-anchor:middle;word-spacing:0px;font-variant-caps:normal;font-feature-settings:normal;text-align:center" font-family="Roboto" xml:space="preserve" font-size="23.169px" line-height="125%" y="271.41248" x="-427.63647" font-weight="500" fill="#237de0"><tspan style="font-variant-numeric:normal;text-anchor:middle;font-variant-ligatures:normal;font-variant-caps:normal;font-feature-settings:normal;text-align:center" font-family="Roboto" font-weight="500" font-size="23.169px" y="271.41248" x="-424.7403" stroke-width="1.4481px" fill="#237de0">UI </tspan></text>
  </g>
  <path d="m-2487 331.47c-6.071-1.1805-12.14-2.3487-18.21-3.5219 4.4025 4.4852 8.8384 8.9514 13.266 13.423-0.063-1.4506-0.157-2.9081-0.2284-4.361 17.845 10.164 39.798 22.722 57.636 32.898-1.1827 0.77824-2.3845 1.539-3.5647 2.3218 6.0707 1.1803 12.139 2.3489 18.208 3.5221-4.4022-4.4848-8.838-8.9523-13.266-13.424 0.063 1.4507 0.1575 2.9095 0.2287 4.3622-17.845-10.163-39.798-22.722-57.635-32.899 1.1824-0.77832 2.3844-1.539 3.5647-2.3217z" stroke-width=".78616" fill="#305680"/>
  <g style="font-variant-ligatures:normal;letter-spacing:0px;font-variant-numeric:normal;word-spacing:0px;font-variant-caps:normal;font-feature-settings:normal" font-family="Roboto" transform="matrix(1.1099 0 0 1.1099 -1705.7 14.473)" line-height="125%" font-size="16.396px" font-weight="500" fill="#237de0">
   <text stroke-width=".88451px" style="font-variant-ligatures:normal;letter-spacing:0px;font-variant-numeric:normal;text-anchor:middle;word-spacing:0px;font-variant-caps:normal;font-feature-settings:normal;text-align:center" font-family="Roboto" xml:space="preserve" font-size="14.152px" line-height="125%" y="228.92946" x="-418.24857" font-weight="500" fill="#237de0"><tspan style="font-variant-numeric:normal;text-anchor:middle;font-variant-ligatures:normal;font-variant-caps:normal;font-feature-settings:normal;text-align:center" y="228.92946" x="-418.24857">Generate</tspan><tspan style="font-variant-numeric:normal;text-anchor:middle;font-variant-ligatures:normal;font-variant-caps:normal;font-feature-settings:normal;text-align:center" y="246.6199" x="-418.24857">Report</tspan></text>
  </g>
  <g fill="#305680" transform="matrix(.12141 0 0 .12141 -2575 306.3)">
   <path d="m204.58 216.67c50.664 0 91.74-48.075 91.74-107.38 0-82.237-41.074-107.38-91.74-107.38-50.668 0-91.74 25.14-91.74 107.38 0.001 59.303 41.073 107.38 91.74 107.38z"/>
   <path d="m407.16 374.72-46.28-104.27c-2.117-4.771-5.836-8.728-10.465-11.138l-71.83-37.392c-1.584-0.823-3.502-0.663-4.926 0.415-20.316 15.366-44.203 23.488-69.076 23.488-24.877 0-48.762-8.122-69.078-23.488-1.428-1.078-3.346-1.238-4.93-0.415l-71.83 37.4c-4.631 2.41-8.346 6.365-10.465 11.138l-46.289 104.26c-3.191 7.188-2.537 15.412 1.75 22.005 4.285 6.592 11.537 10.526 19.4 10.526h362.86c7.863 0 15.117-3.936 19.402-10.527 4.285-6.592 4.941-14.819 1.75-22.004z"/>
  </g>
  <text style="word-spacing:0px;letter-spacing:0px" stroke-width=".68708" font-family="Roboto" xml:space="preserve" font-size="12.024px" line-height="0%" y="299.53333" x="-2577.5796" font-weight="bold" fill="#237de0"><tspan font-family="Roboto" font-weight="bold" font-size="12.024px" line-height="125%" y="299.53333" x="-2577.5796" stroke-width=".68708">End Users</tspan></text>
  <rect stroke-linejoin="round" height="78.531" width="83.557" stroke="#305680" stroke-linecap="round" y="284.14" x="-2592" stroke-width="3.2991" fill="none"/>
  <rect stroke-linejoin="round" height="80.585" width="84.448" stroke="#305680" stroke-linecap="round" y="390.16" x="-2592.4" stroke-width="3.2991" fill="none"/>
  <text style="word-spacing:0px;letter-spacing:0px" font-family="Roboto" xml:space="preserve" font-size="7.3556px" line-height="0%" y="405.88284" x="-2586.5137" font-weight="bold" fill="#237de0"><tspan font-family="Roboto" font-weight="bold" font-size="13.054px" line-height="125%" y="405.88284" x="-2586.5137" stroke-width="3.6448">Applications</tspan></text>
  <g transform="matrix(.40802 0 0 .40802 -3006.3 44.899)" stroke-width="6.5289">
   <path d="m1181.4 963.53c0 35.11-28.462 63.571-63.572 63.571s-63.571-28.462-63.571-63.571c0-35.11 28.462-63.571 63.571-63.571 35.11 0 63.572 28.462 63.572 63.571" fill="#237de0"/>
   <path d="m1149.3 949.1c-0.5442 0-1.0798 0.0359-1.6085 0.0947v-0.0947c0-8.6362-7.0012-15.637-15.637-15.637-2.527 0-4.9058 0.61331-7.0183 1.6776-3.5837-6.497-10.498-10.899-18.442-10.899-11.626 0-21.05 9.4243-21.05 21.05 0 0.70501 0.036 1.4016 0.104 2.0888-7.7181 0.80036-13.736 7.3228-13.736 15.252 0 8.4703 6.8663 15.337 15.336 15.337 1.738 0 3.402-0.30276 4.9598-0.83565 2.8011 6.6176 9.3545 11.26 16.992 11.26 6.7692 0 12.683-3.649 15.891-9.0852 1.6584 0.93068 3.5675 1.4671 5.6045 1.4671 4.24 0 7.9339-2.3067 9.9194-5.7278 2.4177 1.8256 5.4172 2.9211 8.68 2.9211 7.9719 0 14.434-6.4625 14.434-14.434 0-7.972-6.4625-14.434-14.434-14.434" fill="#fff"/>
   <path d="m1099.4 967.51h36.864v-5.8694h-36.864z" fill="#237de0"/>
   <path d="m1098.7 998.29h38.175v-28.42h-38.175z" fill="#fff"/>
   <path d="m1135.8 997.27h-35.621v-26.345h35.621zm-35.242-34.333h16.839v3.454h-16.839zm30.655 0h4.2094v3.454h-4.2094zm5.0595-5.1228h-36.564c-2.3202 0-4.2189 1.8987-4.2189 4.2191v36.565c0 2.3202 1.8987 4.219 4.2189 4.219h36.564c2.3204 0 4.2191-1.8987 4.2191-4.219v-36.565c0-2.3204-1.8987-4.2191-4.2191-4.2191" fill="#345982"/>
   <g fill="#237de0">
    <path d="m1111.9 988.04-6.6121-4.0179 6.6121-3.8736v-4.1194l-9.4804 6.288v3.4974l9.4804 6.3153v-4.0899"/>
    <path d="m1133.2 982.32-9.4804-6.288v4.1194l6.6121 3.8736-6.6121 4.0179v4.0899l9.4804-6.3153v-3.4974"/>
    <path d="m1121.6 974.09h-2.7803l-4.784 19.979h2.7281l4.8362-19.979"/>
   </g>
  </g>
  <g style="font-variant-ligatures:normal;letter-spacing:0px;font-variant-numeric:normal;word-spacing:0px;font-variant-caps:normal;font-feature-settings:normal" font-family="Roboto" transform="matrix(.80022 0 0 .80022 -2126.1 160.91)" line-height="125%" font-size="16.396px" font-weight="500" fill="#237de0">
   <text style="font-variant-ligatures:normal;letter-spacing:0px;font-variant-numeric:normal;text-anchor:middle;word-spacing:0px;font-variant-caps:normal;font-feature-settings:normal;text-align:center" font-family="Roboto" xml:space="preserve" transform="rotate(-30)" line-height="125%" font-size="23.169px" y="83.91758" x="-521.46204" font-weight="500" fill="#237de0"><tspan style="font-variant-numeric:normal;text-anchor:middle;font-variant-ligatures:normal;font-variant-caps:normal;font-feature-settings:normal;text-align:center" font-family="Roboto" font-weight="500" font-size="23.169px" y="83.91758" x="-518.56586" stroke-width="1.4481px" fill="#237de0">REST API </tspan></text>
  </g>
  <path d="m-2491.4 418.28c-4.0579 4.6674-8.1041 9.3393-12.155 14.009 6.0855-1.5701 12.171-3.1786 18.258-4.7772-1.2877-0.67072-2.5969-1.3181-3.8909-1.9827 17.725-10.372 39.577-23.105 57.308-33.465 0.083 1.4134 0.1405 2.8345 0.2283 4.248 4.0576-4.6672 8.1036-9.3379 12.154-14.008-6.0851 1.57-12.172 3.1778-18.258 4.7764 1.2879 0.67078 2.5985 1.3183 3.8922 1.9831-17.724 10.373-39.577 23.105-57.308 33.464-0.083-1.4131-0.1407-2.8344-0.2283-4.248z" stroke-width=".78616" fill="#305680"/>
  <rect stroke-linejoin="round" height="112.21" width="119.43" stroke="#305680" stroke-linecap="round" y="321.34" x="-2192.2" stroke-width="3.2991" fill="none"/>
  <g style="font-variant-ligatures:normal;font-variant-numeric:normal;font-variant-caps:normal;font-feature-settings:normal" transform="matrix(0.992 0 0 0.992 -1684.7 107.02)" stroke-width=".40990px" fill="#237de0">
   <path style="font-variant-ligatures:normal;font-variant-numeric:normal;font-variant-caps:normal;font-feature-settings:normal" d="m-489.45 229.53h-2.2577v4.4914h-2.0255v-11.657h4.099q2.0175 0 3.1143 0.90467 1.0968 0.90468 1.0968 2.618 0 1.1689-0.56842 1.9615-0.56042 0.78458-1.5692 1.2089l2.618 4.8596v0.10408h-2.1696zm-2.2577-1.6252h2.0816q1.0248 0 1.6012-0.51238 0.57643-0.52039 0.57643-1.4171 0-0.9367-0.5364-1.4491-0.52839-0.51238-1.5852-0.52839h-2.1376z"/>
   <path style="font-variant-ligatures:normal;font-variant-numeric:normal;font-variant-caps:normal;font-feature-settings:normal" d="m-478.43 233.17q-0.85664 1.0088-2.4338 1.0088-1.409 0-2.1376-0.82462-0.72053-0.82461-0.72053-2.3858v-5.6122h1.9454v5.5882q0 1.6492 1.369 1.6492 1.417 0 1.9134-1.0168v-6.2206h1.9454v8.6625h-1.8334z"/>
   <path style="font-variant-ligatures:normal;font-variant-numeric:normal;font-variant-caps:normal;font-feature-settings:normal" d="m-472.48 234.02h-1.9454v-12.297h1.9454z"/>
   <path style="font-variant-ligatures:normal;font-variant-numeric:normal;font-variant-caps:normal;font-feature-settings:normal" d="m-466.54 234.18q-1.8494 0-3.0022-1.1609-1.1448-1.1689-1.1448-3.1063v-0.24018q0-1.297 0.49637-2.3137 0.50437-1.0248 1.409-1.5932 0.90467-0.56843 2.0175-0.56843 1.7693 0 2.73 1.1288 0.96872 1.1288 0.96872 3.1944v0.78458h-5.6602q0.0881 1.0728 0.71253 1.6973 0.63247 0.62446 1.5852 0.62446 1.337 0 2.1776-1.0808l1.0488 1.0007q-0.52039 0.77658-1.393 1.2089-0.86465 0.42432-1.9454 0.42432zm-0.23218-7.4215q-0.80059 0-1.297 0.56041-0.48837 0.56042-0.62447 1.5612h3.7068v-0.14411q-0.0641-0.97673-0.52039-1.4731-0.45634-0.50437-1.265-0.50437z"/>
   <path style="font-variant-ligatures:normal;font-variant-numeric:normal;font-variant-caps:normal;font-feature-settings:normal" d="m-450.45 228.82h-4.7876v3.5867h5.5962v1.6172h-7.6217v-11.657h7.5656v1.6332h-5.5401v3.2184h4.7876z"/>
   <path style="font-variant-ligatures:normal;font-variant-numeric:normal;font-variant-caps:normal;font-feature-settings:normal" d="m-446.35 225.36 0.056 1.0008q0.96072-1.1609 2.5219-1.1609 2.706 0 2.7541 3.0983v5.7243h-1.9454v-5.6122q0-0.82462-0.36027-1.2169-0.35227-0.4003-1.1609-0.4003-1.1769 0-1.7533 1.0648v6.1646h-1.9454v-8.6625z"/>
   <path style="font-variant-ligatures:normal;font-variant-numeric:normal;font-variant-caps:normal;font-feature-settings:normal" d="m-439.37 229.63q0-2.0175 0.94471-3.2184 0.95271-1.2089 2.5219-1.2089 1.4811 0 2.3297 1.0328l0.0881-0.87265h1.7533v8.3983q0 1.7053-1.0648 2.69-1.0568 0.98473-2.8581 0.98473-0.95271 0-1.8654-0.40029-0.90467-0.3923-1.377-1.0328l0.92068-1.1689q0.89667 1.0648 2.2096 1.0648 0.96872 0 1.5291-0.5284 0.56042-0.52038 0.56042-1.5371v-0.58444q-0.84063 0.9367-2.2417 0.9367-1.5211 0-2.4899-1.2089-0.96072-1.2089-0.96072-3.3465zm1.9374 0.16813q0 1.305 0.52839 2.0575 0.5364 0.74456 1.4811 0.74456 1.1769 0 1.7453-1.0088v-3.8108q-0.55241-0.98473-1.7293-0.98473-0.96072 0-1.4971 0.76057-0.52839 0.76056-0.52839 2.2417z"/>
   <path style="font-variant-ligatures:normal;font-variant-numeric:normal;font-variant-caps:normal;font-feature-settings:normal" d="m-427.68 234.02h-1.9454v-8.6625h1.9454zm-2.0655-10.912q0-0.44833 0.28021-0.74455 0.28821-0.29622 0.81661-0.29622 0.52839 0 0.8166 0.29622 0.28822 0.29622 0.28822 0.74455 0 0.44033-0.28822 0.73655-0.28821 0.28822-0.8166 0.28822-0.5284 0-0.81661-0.28822-0.28021-0.29622-0.28021-0.73655z"/>
   <path style="font-variant-ligatures:normal;font-variant-numeric:normal;font-variant-caps:normal;font-feature-settings:normal" d="m-423.75 225.36 0.056 1.0008q0.96072-1.1609 2.5219-1.1609 2.706 0 2.7541 3.0983v5.7243h-1.9454v-5.6122q0-0.82462-0.36027-1.2169-0.35227-0.4003-1.1609-0.4003-1.1769 0-1.7533 1.0648v6.1646h-1.9454v-8.6625z"/>
   <path style="font-variant-ligatures:normal;font-variant-numeric:normal;font-variant-caps:normal;font-feature-settings:normal" d="m-412.61 234.18q-1.8494 0-3.0022-1.1609-1.1449-1.1689-1.1449-3.1063v-0.24018q0-1.297 0.49637-2.3137 0.50438-1.0248 1.4091-1.5932 0.90467-0.56843 2.0175-0.56843 1.7693 0 2.73 1.1288 0.96872 1.1288 0.96872 3.1944v0.78458h-5.6602q0.0881 1.0728 0.71253 1.6973 0.63247 0.62446 1.5852 0.62446 1.337 0 2.1776-1.0808l1.0488 1.0007q-0.52039 0.77658-1.393 1.2089-0.86465 0.42432-1.9454 0.42432zm-0.23218-7.4215q-0.80059 0-1.297 0.56041-0.48837 0.56042-0.62447 1.5612h3.7068v-0.14411q-0.064-0.97673-0.52038-1.4731-0.45634-0.50437-1.265-0.50437z"/>
  </g>
  <g transform="matrix(.34363 0 0 .34363 -2235.5 37.783)">
   <g fill-rule="evenodd" transform="matrix(.97318 -1.2702 1.2702 .97318 -1152.1 594.01)" clip-rule="evenodd" fill="#237de0">
    <path d="m363.34 833.96c1.6957 0.36941 3.8357-2.9495 2.9776-4.2854-0.28078-0.43886-0.42149-0.92847-0.43076-1.4141 0.91589-0.99503 2.8621-2.1052 3.8572-2.5322 0.45803 0.20996 0.8627 0.54821 1.155 1.0035 0.93562 1.458 4.7543 0.81995 5.1349-0.92501 0.11881-0.54527 0.48638-1.0913 0.76615-1.3768 0.95979-0.00083 3.0259 0.39787 4.4258 0.95493 0.17933 0.35712 0.24744 1.032 0.12672 1.5803-0.40182 1.8456 2.9168 3.8563 4.3141 2.9593 0.46665-0.2999 1.1255-0.46344 1.5066-0.43241 0.72718 0.70605 2.04 2.7585 2.4742 3.7763-0.28144 0.41708-0.55777 0.92771-1.0396 1.2367-1.3968 0.89757-0.86622 4.7699 0.9287 5.1612 0.59041 0.12892 1.1144 0.44934 1.4642 0.86128-0.0522 0.99901-0.60101 3.4216-0.99349 4.3106-0.22593 0.18113-1.0626 0.27217-1.6303 0.14824-2.4433-0.53217-4.0844 2.6069-2.9925 4.3071 0.30832 0.48046 0.50284 1.0269 0.43021 1.5521-0.69255 0.70104-2.6906 1.997-3.7743 2.4303-0.47093-0.17709-0.92799-0.55723-1.2371-1.0394-0.97473-1.5191-4.726-1.0652-5.1609 0.92952-0.11338 0.51901-0.42849 0.96401-0.74944 1.3942-1.2742-0.0952-3.4871-0.44591-4.5187-1.0113-0.17766-0.48873-0.16174-1.0337-0.0509-1.5412 0.38053-1.746-2.7597-3.9861-4.278-3.011-0.42426 0.27277-0.928 0.47952-1.4014 0.49982-0.93531-0.87967-2.3071-2.9541-2.6105-3.9706 0.23037-0.50933 0.63103-0.82739 1.0711-1.1106 1.6403-1.0524 0.97092-4.7227-0.9238-5.1353-0.51861-0.1135-0.99378-0.41073-1.3581-0.73085 0.10629-1.1032 0.34297-3.0499 0.9398-4.462 0.58126-0.22927 1.0294-0.2464 1.5775-0.12715zm4.5488 3.6302c-0.94174 4.3184 1.7959 8.581 6.1138 9.5222 4.3177 0.94039 8.5808-1.798 9.5221-6.1162 0.94133-4.3182-1.7961-8.5811-6.1137-9.5218-4.3178-0.94079-8.5809 1.797-9.5222 6.1158z"/>
    <path d="m370.63 810.63c0.80729 0.40719 2.319-0.98843 2.0601-1.7741-0.0845-0.25795-0.0917-0.52326-0.0332-0.76946 0.5916-0.38269 1.7179-0.68931 2.2756-0.77511 0.20371 0.16557 0.36382 0.38889 0.45196 0.65661 0.28212 0.85735 2.2916 1.0327 2.7108 0.20203 0.13097-0.25958 0.38746-0.48717 0.56577-0.59476 0.48429 0.12457 1.4747 0.59475 2.1083 1.058 0.044 0.20351-0.01 0.55282-0.14186 0.81371-0.44301 0.8787 0.96927 2.3252 1.7909 2.0546 0.27446-0.0905 0.62813-0.0872 0.81631-0.022 0.2749 0.45087 0.66993 1.6572 0.75642 2.2272-0.19629 0.17375-0.40218 0.39537-0.68547 0.48849-0.82153 0.2709-1.0581 2.2935-0.20358 2.7246 0.281 0.14202 0.50369 0.37179 0.62648 0.62514-0.15641 0.49718-0.74874 1.6478-1.0625 2.0452-0.13756 0.062-0.5715-0.001-0.84171-0.1375-1.1633-0.58663-2.3999 0.78323-2.0705 1.7831 0.093 0.28252 0.11995 0.58351 0.0149 0.83898-0.44066 0.26346-1.6174 0.65704-2.2205 0.73453-0.2145-0.15066-0.39557-0.40194-0.48871-0.68545-0.2939-0.89325-2.2454-1.1528-2.7245-0.20313-0.12491 0.247-0.34169 0.43051-0.55961 0.60572-0.6304-0.21394-1.701-0.67903-2.1478-1.0986-0.026-0.26968 0.053-0.54252 0.17501-0.78411 0.41933-0.83125-0.87309-2.3702-1.766-2.076-0.24954 0.0824-0.53058 0.12105-0.77206 0.0696-0.35727-0.56555-0.77918-1.7906-0.79985-2.343 0.18253-0.22695 0.42608-0.33522 0.68497-0.42076 0.96451-0.31732 1.1048-2.256 0.20269-2.7109-0.24683-0.12481-0.44784-0.33661-0.58996-0.54554 0.19728-0.54269 0.57016-1.4939 1.0551-2.1285 0.32308-0.04 0.55138 0.01 0.81234 0.14127zm1.822 2.4236c-1.0374 2.0558-0.21145 4.5626 1.8442 5.5997 2.0556 1.0366 4.5628 0.21034 5.6-1.8455s0.21133-4.5628-1.8442-5.5995c-2.0557-1.0369-4.5627-0.2109-5.6 1.8452z"/>
    <path d="m347.84 818.38c1.2056 0.23226 2.6624-2.1517 2.0326-3.0818-0.20608-0.30559-0.31398-0.64947-0.32885-0.99278 0.63076-0.71942 1.9882-1.5379 2.6848-1.8569 0.32753 0.14068 0.61953 0.37297 0.83402 0.68997 0.68666 1.0152 3.3765 0.49859 3.6159-0.74207 0.0747-0.38768 0.32533-0.78014 0.51832-0.98683 0.67881-0.017 2.1469 0.22964 3.1465 0.59967 0.13295 0.24952 0.19266 0.72564 0.11665 1.1155-0.2526 1.3122 2.129 2.6776 3.1018 2.0192 0.32491-0.22009 0.7881-0.34703 1.0581-0.3316 0.5264 0.48692 1.49 1.9161 1.8145 2.6285-0.19193 0.2998-0.37863 0.66567-0.7141 0.89244-0.97257 0.65872-0.53105 3.3884 0.74513 3.6344 0.41977 0.0811 0.79589 0.29873 1.0503 0.58409-0.0198 0.70746-0.36655 2.4302-0.62891 3.0657-0.15669 0.13198-0.7469 0.21068-1.1505 0.13274-1.7372-0.33459-2.8441 1.9136-2.0428 3.0974 0.22628 0.33453 0.37321 0.71768 0.33083 1.0904-0.47783 0.50766-1.8688 1.4584-2.6278 1.7834-0.3361-0.11719-0.66587-0.37822-0.89273-0.714-0.71537-1.0577-3.3608-0.67257-3.6342 0.74571-0.0713 0.36901-0.28654 0.68914-0.50619 0.99885-0.90283-0.0455-2.4739-0.25572-3.2132-0.63794-0.13402-0.34262-0.13207-0.72833-0.0624-1.0892 0.23926-1.2414-2.02-2.772-3.0771-2.0564-0.2954 0.20018-0.64814 0.35503-0.98264 0.37748-0.67656-0.60616-1.6823-2.0498-1.9142-2.7636 0.15416-0.36419 0.43215-0.59597 0.73858-0.80378 1.1421-0.7724 0.60591-3.3568-0.74121-3.6162-0.36874-0.0714-0.7099-0.27349-0.97307-0.49365 0.0563-0.78208 0.1904-2.1629 0.58836-3.1718 0.40718-0.1721 0.72384-0.19189 1.1135-0.11693zm3.2793 2.4897c-0.59218 3.0703 1.4169 6.0383 4.487 6.6301 3.0698 0.59125 6.0381-1.4185 6.63-4.4887 0.59191-3.0702-1.4171-6.0384-4.4869-6.6298-3.0699-0.59153-6.0382 1.4177-6.6301 4.4884z"/>
   </g>
   <path stroke-linejoin="round" d="m323.43 949.36 0.01-42.659v0" stroke="#305680" stroke-linecap="round" stroke-width="8.4145" fill="none"/>
   <g fill="#237de0" transform="matrix(.10005 .033696 -.033696 .10005 345 899.17)">
    <path fill="#237de0" d="m362.3 125.06c-2.851-2.853-6.092-4.28-9.706-4.287-0.77 0-1.902 0.193-3.432 0.572l-113.06 27.98 48.82-132.19c0.951-1.903 1.431-3.614 1.431-5.139 0-3.234-1.242-6.04-3.713-8.42-2.48-2.383-5.52-3.571-9.14-3.571h-93.645c-3.045 0-5.708 0.855-7.994 2.568-2.284 1.715-3.809 3.905-4.568 6.567l-57.386 235.55c-0.953 4.564 0.284 8.277 3.711 11.135 2.473 2.099 5.421 3.139 8.848 3.139 1.524 0 2.666-0.089 3.427-0.281l115.91-28.838-56.244 230.69c-0.76 3.045-0.333 5.899 1.287 8.562 1.619 2.669 4.047 4.476 7.281 5.427 1.903 0.377 3.239 0.568 3.999 0.568 5.52 0 9.514-2.375 11.991-7.136l154.16-330.32c2.095-4.567 1.434-8.756-1.998-12.561z"/>
   </g>
  </g>
  <rect stroke-linejoin="round" height="49.236" width="94.374" stroke="#305680" stroke-linecap="round" y="376.06" x="-2179.7" stroke-width="3.2992" fill="none"/>
  <g style="font-variant-ligatures:normal;letter-spacing:0px;font-variant-numeric:normal;word-spacing:0px;font-variant-caps:normal;font-feature-settings:normal" font-family="Roboto" transform="matrix(.67464 0 0 .67464 -1826.2 231.1)" font-size="16.396px" line-height="125%" font-weight="500" fill="#237de0">
   <text stroke-width="1.569px" style="font-variant-ligatures:normal;letter-spacing:0px;font-variant-numeric:normal;word-spacing:0px;font-variant-caps:normal;font-feature-settings:normal" font-family="Roboto" xml:space="preserve" font-size="25.104px" line-height="125%" y="242.92325" x="-462.78647" font-weight="500" fill="#237de0"><tspan style="font-variant-numeric:normal;font-variant-ligatures:normal;font-variant-caps:normal;font-feature-settings:normal" y="242.92325" x="-462.78647">Rule</tspan><tspan style="font-variant-numeric:normal;font-variant-ligatures:normal;font-variant-caps:normal;font-feature-settings:normal" y="274.30374" x="-462.78647">Chain</tspan></text>
  </g>
  <path d="m-2165 394.15-1.9441-1.6159-6.8298 8.2311 6.8298 8.2311 1.9441-1.6159-5.4916-6.6152zm-0.972 7.8776h2.5249v-2.5249h-2.5249zm12.624-2.5249h-2.5249v2.5249h2.5249zm-7.5746 2.5249h2.5249v-2.5249h-2.5249zm8.5466-9.4935-1.9441 1.6159 5.4916 6.6152-5.4916 6.6152 1.9441 1.6159 6.8298-8.2311z" stroke-width="1.2624" fill="#305680"/>
  <g transform="translate(-50.193 -31.82)">
   <g stroke-linejoin="round" stroke="#305680" stroke-linecap="round" stroke-width="3.2991" fill="#fff">
    <rect height="110.35" width="105.48" y="372.16" x="-1889.3"/>
    <rect height="110.35" width="105.48" y="361.74" x="-1901.1"/>
    <rect height="110.35" width="105.48" y="351.42" x="-1914.1"/>
   </g>
   <text stroke-width=".94650px" style="font-variant-ligatures:normal;letter-spacing:0px;font-variant-numeric:normal;text-anchor:middle;word-spacing:0px;font-variant-caps:normal;font-feature-settings:normal;text-align:center" font-family="Roboto" xml:space="preserve" font-size="16.564px" line-height="0%" y="370.17325" x="-1861.6807" font-weight="bold" fill="#237de0"><tspan style="font-variant-numeric:normal;text-anchor:middle;font-variant-ligatures:normal;font-variant-caps:normal;font-feature-settings:normal;text-align:center" line-height="1.25" y="370.17325" x="-1861.6807">Device</tspan><tspan style="font-variant-numeric:normal;text-anchor:middle;font-variant-ligatures:normal;font-variant-caps:normal;font-feature-settings:normal;text-align:center" line-height="1.25" y="390.87793" x="-1861.6807">Group</tspan></text>
   <g fill="#305680" transform="matrix(.39790 0 0 .39790 -1807.6 257.78)">
    <g transform="translate(-318.77 19.031)" fill="#305680">
     <path style="color-rendering:auto;text-decoration-color:#000000;color:#000000;isolation:auto;mix-blend-mode:normal;shape-rendering:auto;solid-color:#000000;text-decoration-line:none;text-decoration-style:solid;image-rendering:auto;white-space:normal;text-indent:0;text-transform:none" d="m146.6 366.65c-2.065 0.0002-3.739 1.6742-3.7392 3.7392v72.522c0.00021 2.065 1.6742 3.739 3.7392 3.7392h72.522c2.065-0.00021 3.739-1.6742 3.7392-3.7392v-72.522c-0.00021-2.065-1.6742-3.739-3.7392-3.7392z"/>
     <g fill-rule="evenodd" transform="translate(-257.14 294.29)">
      <path style="color-rendering:auto;text-decoration-color:#000000;color:#000000;isolation:auto;mix-blend-mode:normal;shape-rendering:auto;solid-color:#000000;text-decoration-line:none;text-decoration-style:solid;image-rendering:auto;white-space:normal;text-indent:0;text-transform:none" d="m419.92 49.559a5 5 0 0 0 -4.9233 5.0698v13.733h9.999v-13.733a5 5 0 0 0 -5.0757 -5.0698z"/>
      <path style="color-rendering:auto;text-decoration-color:#000000;color:#000000;isolation:auto;mix-blend-mode:normal;shape-rendering:auto;solid-color:#000000;text-decoration-line:none;text-decoration-style:solid;image-rendering:auto;white-space:normal;text-indent:0;text-transform:none" d="m439.92 49.559a5 5 0 0 0 -4.9233 5.0698v13.733h9.999v-13.733a5 5 0 0 0 -5.0757 -5.0698z"/>
      <path style="color-rendering:auto;text-decoration-color:#000000;color:#000000;isolation:auto;mix-blend-mode:normal;shape-rendering:auto;solid-color:#000000;text-decoration-line:none;text-decoration-style:solid;image-rendering:auto;white-space:normal;text-indent:0;text-transform:none" d="m459.92 49.559a5 5 0 0 0 -4.9233 5.0698v13.733h9.999v-13.733a5 5 0 0 0 -5.0757 -5.0698z"/>
     </g>
     <g fill-rule="evenodd" transform="rotate(180 311.43 259.5)">
      <path style="color-rendering:auto;text-decoration-color:#000000;color:#000000;isolation:auto;mix-blend-mode:normal;shape-rendering:auto;solid-color:#000000;text-decoration-line:none;text-decoration-style:solid;image-rendering:auto;white-space:normal;text-indent:0;text-transform:none" d="m419.92 49.559a5 5 0 0 0 -4.9233 5.0698v13.733h9.999v-13.733a5 5 0 0 0 -5.0757 -5.0698z"/>
      <path style="color-rendering:auto;text-decoration-color:#000000;color:#000000;isolation:auto;mix-blend-mode:normal;shape-rendering:auto;solid-color:#000000;text-decoration-line:none;text-decoration-style:solid;image-rendering:auto;white-space:normal;text-indent:0;text-transform:none" d="m439.92 49.559a5 5 0 0 0 -4.9233 5.0698v13.733h9.999v-13.733a5 5 0 0 0 -5.0757 -5.0698z"/>
      <path style="color-rendering:auto;text-decoration-color:#000000;color:#000000;isolation:auto;mix-blend-mode:normal;shape-rendering:auto;solid-color:#000000;text-decoration-line:none;text-decoration-style:solid;image-rendering:auto;white-space:normal;text-indent:0;text-transform:none" d="m459.92 49.559a5 5 0 0 0 -4.9233 5.0698v13.733h9.999v-13.733a5 5 0 0 0 -5.0757 -5.0698z"/>
     </g>
     <g fill-rule="evenodd" transform="rotate(-90 458.57 388.07)">
      <path style="color-rendering:auto;text-decoration-color:#000000;color:#000000;isolation:auto;mix-blend-mode:normal;shape-rendering:auto;solid-color:#000000;text-decoration-line:none;text-decoration-style:solid;image-rendering:auto;white-space:normal;text-indent:0;text-transform:none" d="m419.92 49.559a5 5 0 0 0 -4.9233 5.0698v13.733h9.999v-13.733a5 5 0 0 0 -5.0757 -5.0698z"/>
      <path style="color-rendering:auto;text-decoration-color:#000000;color:#000000;isolation:auto;mix-blend-mode:normal;shape-rendering:auto;solid-color:#000000;text-decoration-line:none;text-decoration-style:solid;image-rendering:auto;white-space:normal;text-indent:0;text-transform:none" d="m439.92 49.559a5 5 0 0 0 -4.9233 5.0698v13.733h9.999v-13.733a5 5 0 0 0 -5.0757 -5.0698z"/>
      <path style="color-rendering:auto;text-decoration-color:#000000;color:#000000;isolation:auto;mix-blend-mode:normal;shape-rendering:auto;solid-color:#000000;text-decoration-line:none;text-decoration-style:solid;image-rendering:auto;white-space:normal;text-indent:0;text-transform:none" d="m459.92 49.559a5 5 0 0 0 -4.9233 5.0698v13.733h9.999v-13.733a5 5 0 0 0 -5.0757 -5.0698z"/>
     </g>
     <g fill-rule="evenodd" transform="rotate(90 164.29 130.93)">
      <path style="color-rendering:auto;text-decoration-color:#000000;color:#000000;isolation:auto;mix-blend-mode:normal;shape-rendering:auto;solid-color:#000000;text-decoration-line:none;text-decoration-style:solid;image-rendering:auto;white-space:normal;text-indent:0;text-transform:none" d="m419.92 49.559a5 5 0 0 0 -4.9233 5.0698v13.733h9.999v-13.733a5 5 0 0 0 -5.0757 -5.0698z"/>
      <path style="color-rendering:auto;text-decoration-color:#000000;color:#000000;isolation:auto;mix-blend-mode:normal;shape-rendering:auto;solid-color:#000000;text-decoration-line:none;text-decoration-style:solid;image-rendering:auto;white-space:normal;text-indent:0;text-transform:none" d="m439.92 49.559a5 5 0 0 0 -4.9233 5.0698v13.733h9.999v-13.733a5 5 0 0 0 -5.0757 -5.0698z"/>
      <path style="color-rendering:auto;text-decoration-color:#000000;color:#000000;isolation:auto;mix-blend-mode:normal;shape-rendering:auto;solid-color:#000000;text-decoration-line:none;text-decoration-style:solid;image-rendering:auto;white-space:normal;text-indent:0;text-transform:none" d="m459.92 49.559a5 5 0 0 0 -4.9233 5.0698v13.733h9.999v-13.733a5 5 0 0 0 -5.0757 -5.0698z"/>
     </g>
    </g>
   </g>
  </g>
  <g transform="translate(7.5 -.29047)">
   <g transform="translate(-21.951 -44.063)">
    <rect stroke-linejoin="round" height="60.611" width="59.512" stroke="#305680" stroke-linecap="round" y="317.15" x="-1733.1" stroke-width="3.2991" fill="none"/>
    <text style="word-spacing:0px;letter-spacing:0px;text-anchor:middle;text-align:center" font-weight="bold" xml:space="preserve" font-size="4.7686px" line-height="0%" y="328.57578" x="-1703.4806" font-family="Roboto" fill="#237de0"><tspan font-size="9.839px" line-height="1.25" y="328.57578" x="-1703.4806" stroke-width=".39738px">Device</tspan></text>
    <g fill="#305680" transform="matrix(.31358 0 0 .31358 -1660.7 219.67)">
     <g transform="translate(-318.77 19.031)" fill="#305680">
      <path style="color-rendering:auto;text-decoration-color:#000000;color:#000000;isolation:auto;mix-blend-mode:normal;shape-rendering:auto;solid-color:#000000;text-decoration-line:none;text-decoration-style:solid;image-rendering:auto;white-space:normal;text-indent:0;text-transform:none" d="m146.6 366.65c-2.065 0.0002-3.739 1.6742-3.7392 3.7392v72.522c0.00021 2.065 1.6742 3.739 3.7392 3.7392h72.522c2.065-0.00021 3.739-1.6742 3.7392-3.7392v-72.522c-0.00021-2.065-1.6742-3.739-3.7392-3.7392z"/>
      <g fill-rule="evenodd" transform="translate(-257.14 294.29)">
       <path style="color-rendering:auto;text-decoration-color:#000000;color:#000000;isolation:auto;mix-blend-mode:normal;shape-rendering:auto;solid-color:#000000;text-decoration-line:none;text-decoration-style:solid;image-rendering:auto;white-space:normal;text-indent:0;text-transform:none" d="m419.92 49.559a5 5 0 0 0 -4.9233 5.0698v13.733h9.999v-13.733a5 5 0 0 0 -5.0757 -5.0698z"/>
       <path style="color-rendering:auto;text-decoration-color:#000000;color:#000000;isolation:auto;mix-blend-mode:normal;shape-rendering:auto;solid-color:#000000;text-decoration-line:none;text-decoration-style:solid;image-rendering:auto;white-space:normal;text-indent:0;text-transform:none" d="m439.92 49.559a5 5 0 0 0 -4.9233 5.0698v13.733h9.999v-13.733a5 5 0 0 0 -5.0757 -5.0698z"/>
       <path style="color-rendering:auto;text-decoration-color:#000000;color:#000000;isolation:auto;mix-blend-mode:normal;shape-rendering:auto;solid-color:#000000;text-decoration-line:none;text-decoration-style:solid;image-rendering:auto;white-space:normal;text-indent:0;text-transform:none" d="m459.92 49.559a5 5 0 0 0 -4.9233 5.0698v13.733h9.999v-13.733a5 5 0 0 0 -5.0757 -5.0698z"/>
      </g>
      <g fill-rule="evenodd" transform="rotate(180 311.43 259.5)">
       <path style="color-rendering:auto;text-decoration-color:#000000;color:#000000;isolation:auto;mix-blend-mode:normal;shape-rendering:auto;solid-color:#000000;text-decoration-line:none;text-decoration-style:solid;image-rendering:auto;white-space:normal;text-indent:0;text-transform:none" d="m419.92 49.559a5 5 0 0 0 -4.9233 5.0698v13.733h9.999v-13.733a5 5 0 0 0 -5.0757 -5.0698z"/>
       <path style="color-rendering:auto;text-decoration-color:#000000;color:#000000;isolation:auto;mix-blend-mode:normal;shape-rendering:auto;solid-color:#000000;text-decoration-line:none;text-decoration-style:solid;image-rendering:auto;white-space:normal;text-indent:0;text-transform:none" d="m439.92 49.559a5 5 0 0 0 -4.9233 5.0698v13.733h9.999v-13.733a5 5 0 0 0 -5.0757 -5.0698z"/>
       <path style="color-rendering:auto;text-decoration-color:#000000;color:#000000;isolation:auto;mix-blend-mode:normal;shape-rendering:auto;solid-color:#000000;text-decoration-line:none;text-decoration-style:solid;image-rendering:auto;white-space:normal;text-indent:0;text-transform:none" d="m459.92 49.559a5 5 0 0 0 -4.9233 5.0698v13.733h9.999v-13.733a5 5 0 0 0 -5.0757 -5.0698z"/>
      </g>
      <g fill-rule="evenodd" transform="rotate(-90 458.57 388.07)">
       <path style="color-rendering:auto;text-decoration-color:#000000;color:#000000;isolation:auto;mix-blend-mode:normal;shape-rendering:auto;solid-color:#000000;text-decoration-line:none;text-decoration-style:solid;image-rendering:auto;white-space:normal;text-indent:0;text-transform:none" d="m419.92 49.559a5 5 0 0 0 -4.9233 5.0698v13.733h9.999v-13.733a5 5 0 0 0 -5.0757 -5.0698z"/>
       <path style="color-rendering:auto;text-decoration-color:#000000;color:#000000;isolation:auto;mix-blend-mode:normal;shape-rendering:auto;solid-color:#000000;text-decoration-line:none;text-decoration-style:solid;image-rendering:auto;white-space:normal;text-indent:0;text-transform:none" d="m439.92 49.559a5 5 0 0 0 -4.9233 5.0698v13.733h9.999v-13.733a5 5 0 0 0 -5.0757 -5.0698z"/>
       <path style="color-rendering:auto;text-decoration-color:#000000;color:#000000;isolation:auto;mix-blend-mode:normal;shape-rendering:auto;solid-color:#000000;text-decoration-line:none;text-decoration-style:solid;image-rendering:auto;white-space:normal;text-indent:0;text-transform:none" d="m459.92 49.559a5 5 0 0 0 -4.9233 5.0698v13.733h9.999v-13.733a5 5 0 0 0 -5.0757 -5.0698z"/>
      </g>
      <g fill-rule="evenodd" transform="rotate(90 164.29 130.93)">
       <path style="color-rendering:auto;text-decoration-color:#000000;color:#000000;isolation:auto;mix-blend-mode:normal;shape-rendering:auto;solid-color:#000000;text-decoration-line:none;text-decoration-style:solid;image-rendering:auto;white-space:normal;text-indent:0;text-transform:none" d="m419.92 49.559a5 5 0 0 0 -4.9233 5.0698v13.733h9.999v-13.733a5 5 0 0 0 -5.0757 -5.0698z"/>
       <path style="color-rendering:auto;text-decoration-color:#000000;color:#000000;isolation:auto;mix-blend-mode:normal;shape-rendering:auto;solid-color:#000000;text-decoration-line:none;text-decoration-style:solid;image-rendering:auto;white-space:normal;text-indent:0;text-transform:none" d="m439.92 49.559a5 5 0 0 0 -4.9233 5.0698v13.733h9.999v-13.733a5 5 0 0 0 -5.0757 -5.0698z"/>
       <path style="color-rendering:auto;text-decoration-color:#000000;color:#000000;isolation:auto;mix-blend-mode:normal;shape-rendering:auto;solid-color:#000000;text-decoration-line:none;text-decoration-style:solid;image-rendering:auto;white-space:normal;text-indent:0;text-transform:none" d="m459.92 49.559a5 5 0 0 0 -4.9233 5.0698v13.733h9.999v-13.733a5 5 0 0 0 -5.0757 -5.0698z"/>
      </g>
     </g>
    </g>
   </g>
   <g transform="translate(-21.951 37.981)">
    <rect stroke-linejoin="round" height="60.611" width="59.512" stroke="#305680" stroke-linecap="round" y="317.15" x="-1733.1" stroke-width="3.2991" fill="none"/>
    <text style="word-spacing:0px;letter-spacing:0px;text-anchor:middle;text-align:center" font-weight="bold" xml:space="preserve" font-size="4.7686px" line-height="0%" y="328.57578" x="-1703.4806" font-family="Roboto" fill="#237de0"><tspan font-size="9.839px" line-height="1.25" y="328.57578" x="-1703.4806" stroke-width=".39738px">Device</tspan></text>
    <g fill="#305680" transform="matrix(.31358 0 0 .31358 -1660.7 219.67)">
     <g transform="translate(-318.77 19.031)" fill="#305680">
      <path style="color-rendering:auto;text-decoration-color:#000000;color:#000000;isolation:auto;mix-blend-mode:normal;shape-rendering:auto;solid-color:#000000;text-decoration-line:none;text-decoration-style:solid;image-rendering:auto;white-space:normal;text-indent:0;text-transform:none" d="m146.6 366.65c-2.065 0.0002-3.739 1.6742-3.7392 3.7392v72.522c0.00021 2.065 1.6742 3.739 3.7392 3.7392h72.522c2.065-0.00021 3.739-1.6742 3.7392-3.7392v-72.522c-0.00021-2.065-1.6742-3.739-3.7392-3.7392z"/>
      <g fill-rule="evenodd" transform="translate(-257.14 294.29)">
       <path style="color-rendering:auto;text-decoration-color:#000000;color:#000000;isolation:auto;mix-blend-mode:normal;shape-rendering:auto;solid-color:#000000;text-decoration-line:none;text-decoration-style:solid;image-rendering:auto;white-space:normal;text-indent:0;text-transform:none" d="m419.92 49.559a5 5 0 0 0 -4.9233 5.0698v13.733h9.999v-13.733a5 5 0 0 0 -5.0757 -5.0698z"/>
       <path style="color-rendering:auto;text-decoration-color:#000000;color:#000000;isolation:auto;mix-blend-mode:normal;shape-rendering:auto;solid-color:#000000;text-decoration-line:none;text-decoration-style:solid;image-rendering:auto;white-space:normal;text-indent:0;text-transform:none" d="m439.92 49.559a5 5 0 0 0 -4.9233 5.0698v13.733h9.999v-13.733a5 5 0 0 0 -5.0757 -5.0698z"/>
       <path style="color-rendering:auto;text-decoration-color:#000000;color:#000000;isolation:auto;mix-blend-mode:normal;shape-rendering:auto;solid-color:#000000;text-decoration-line:none;text-decoration-style:solid;image-rendering:auto;white-space:normal;text-indent:0;text-transform:none" d="m459.92 49.559a5 5 0 0 0 -4.9233 5.0698v13.733h9.999v-13.733a5 5 0 0 0 -5.0757 -5.0698z"/>
      </g>
      <g fill-rule="evenodd" transform="rotate(180 311.43 259.5)">
       <path style="color-rendering:auto;text-decoration-color:#000000;color:#000000;isolation:auto;mix-blend-mode:normal;shape-rendering:auto;solid-color:#000000;text-decoration-line:none;text-decoration-style:solid;image-rendering:auto;white-space:normal;text-indent:0;text-transform:none" d="m419.92 49.559a5 5 0 0 0 -4.9233 5.0698v13.733h9.999v-13.733a5 5 0 0 0 -5.0757 -5.0698z"/>
       <path style="color-rendering:auto;text-decoration-color:#000000;color:#000000;isolation:auto;mix-blend-mode:normal;shape-rendering:auto;solid-color:#000000;text-decoration-line:none;text-decoration-style:solid;image-rendering:auto;white-space:normal;text-indent:0;text-transform:none" d="m439.92 49.559a5 5 0 0 0 -4.9233 5.0698v13.733h9.999v-13.733a5 5 0 0 0 -5.0757 -5.0698z"/>
       <path style="color-rendering:auto;text-decoration-color:#000000;color:#000000;isolation:auto;mix-blend-mode:normal;shape-rendering:auto;solid-color:#000000;text-decoration-line:none;text-decoration-style:solid;image-rendering:auto;white-space:normal;text-indent:0;text-transform:none" d="m459.92 49.559a5 5 0 0 0 -4.9233 5.0698v13.733h9.999v-13.733a5 5 0 0 0 -5.0757 -5.0698z"/>
      </g>
      <g fill-rule="evenodd" transform="rotate(-90 458.57 388.07)">
       <path style="color-rendering:auto;text-decoration-color:#000000;color:#000000;isolation:auto;mix-blend-mode:normal;shape-rendering:auto;solid-color:#000000;text-decoration-line:none;text-decoration-style:solid;image-rendering:auto;white-space:normal;text-indent:0;text-transform:none" d="m419.92 49.559a5 5 0 0 0 -4.9233 5.0698v13.733h9.999v-13.733a5 5 0 0 0 -5.0757 -5.0698z"/>
       <path style="color-rendering:auto;text-decoration-color:#000000;color:#000000;isolation:auto;mix-blend-mode:normal;shape-rendering:auto;solid-color:#000000;text-decoration-line:none;text-decoration-style:solid;image-rendering:auto;white-space:normal;text-indent:0;text-transform:none" d="m439.92 49.559a5 5 0 0 0 -4.9233 5.0698v13.733h9.999v-13.733a5 5 0 0 0 -5.0757 -5.0698z"/>
       <path style="color-rendering:auto;text-decoration-color:#000000;color:#000000;isolation:auto;mix-blend-mode:normal;shape-rendering:auto;solid-color:#000000;text-decoration-line:none;text-decoration-style:solid;image-rendering:auto;white-space:normal;text-indent:0;text-transform:none" d="m459.92 49.559a5 5 0 0 0 -4.9233 5.0698v13.733h9.999v-13.733a5 5 0 0 0 -5.0757 -5.0698z"/>
      </g>
      <g fill-rule="evenodd" transform="rotate(90 164.29 130.93)">
       <path style="color-rendering:auto;text-decoration-color:#000000;color:#000000;isolation:auto;mix-blend-mode:normal;shape-rendering:auto;solid-color:#000000;text-decoration-line:none;text-decoration-style:solid;image-rendering:auto;white-space:normal;text-indent:0;text-transform:none" d="m419.92 49.559a5 5 0 0 0 -4.9233 5.0698v13.733h9.999v-13.733a5 5 0 0 0 -5.0757 -5.0698z"/>
       <path style="color-rendering:auto;text-decoration-color:#000000;color:#000000;isolation:auto;mix-blend-mode:normal;shape-rendering:auto;solid-color:#000000;text-decoration-line:none;text-decoration-style:solid;image-rendering:auto;white-space:normal;text-indent:0;text-transform:none" d="m439.92 49.559a5 5 0 0 0 -4.9233 5.0698v13.733h9.999v-13.733a5 5 0 0 0 -5.0757 -5.0698z"/>
       <path style="color-rendering:auto;text-decoration-color:#000000;color:#000000;isolation:auto;mix-blend-mode:normal;shape-rendering:auto;solid-color:#000000;text-decoration-line:none;text-decoration-style:solid;image-rendering:auto;white-space:normal;text-indent:0;text-transform:none" d="m459.92 49.559a5 5 0 0 0 -4.9233 5.0698v13.733h9.999v-13.733a5 5 0 0 0 -5.0757 -5.0698z"/>
      </g>
     </g>
    </g>
   </g>
   <g transform="translate(-21.951 120.03)">
    <rect stroke-linejoin="round" height="60.611" width="59.512" stroke="#305680" stroke-linecap="round" y="317.15" x="-1733.1" stroke-width="3.2991" fill="none"/>
    <text style="word-spacing:0px;letter-spacing:0px;text-anchor:middle;text-align:center" font-weight="bold" xml:space="preserve" font-size="4.7686px" line-height="0%" y="328.57578" x="-1703.4806" font-family="Roboto" fill="#237de0"><tspan font-size="9.839px" line-height="1.25" y="328.57578" x="-1703.4806" stroke-width=".39738px">Device</tspan></text>
    <g fill="#305680" transform="matrix(.31358 0 0 .31358 -1660.7 219.67)">
     <g transform="translate(-318.77 19.031)" fill="#305680">
      <path style="color-rendering:auto;text-decoration-color:#000000;color:#000000;isolation:auto;mix-blend-mode:normal;shape-rendering:auto;solid-color:#000000;text-decoration-line:none;text-decoration-style:solid;image-rendering:auto;white-space:normal;text-indent:0;text-transform:none" d="m146.6 366.65c-2.065 0.0002-3.739 1.6742-3.7392 3.7392v72.522c0.00021 2.065 1.6742 3.739 3.7392 3.7392h72.522c2.065-0.00021 3.739-1.6742 3.7392-3.7392v-72.522c-0.00021-2.065-1.6742-3.739-3.7392-3.7392z"/>
      <g fill-rule="evenodd" transform="translate(-257.14 294.29)">
       <path style="color-rendering:auto;text-decoration-color:#000000;color:#000000;isolation:auto;mix-blend-mode:normal;shape-rendering:auto;solid-color:#000000;text-decoration-line:none;text-decoration-style:solid;image-rendering:auto;white-space:normal;text-indent:0;text-transform:none" d="m419.92 49.559a5 5 0 0 0 -4.9233 5.0698v13.733h9.999v-13.733a5 5 0 0 0 -5.0757 -5.0698z"/>
       <path style="color-rendering:auto;text-decoration-color:#000000;color:#000000;isolation:auto;mix-blend-mode:normal;shape-rendering:auto;solid-color:#000000;text-decoration-line:none;text-decoration-style:solid;image-rendering:auto;white-space:normal;text-indent:0;text-transform:none" d="m439.92 49.559a5 5 0 0 0 -4.9233 5.0698v13.733h9.999v-13.733a5 5 0 0 0 -5.0757 -5.0698z"/>
       <path style="color-rendering:auto;text-decoration-color:#000000;color:#000000;isolation:auto;mix-blend-mode:normal;shape-rendering:auto;solid-color:#000000;text-decoration-line:none;text-decoration-style:solid;image-rendering:auto;white-space:normal;text-indent:0;text-transform:none" d="m459.92 49.559a5 5 0 0 0 -4.9233 5.0698v13.733h9.999v-13.733a5 5 0 0 0 -5.0757 -5.0698z"/>
      </g>
      <g fill-rule="evenodd" transform="rotate(180 311.43 259.5)">
       <path style="color-rendering:auto;text-decoration-color:#000000;color:#000000;isolation:auto;mix-blend-mode:normal;shape-rendering:auto;solid-color:#000000;text-decoration-line:none;text-decoration-style:solid;image-rendering:auto;white-space:normal;text-indent:0;text-transform:none" d="m419.92 49.559a5 5 0 0 0 -4.9233 5.0698v13.733h9.999v-13.733a5 5 0 0 0 -5.0757 -5.0698z"/>
       <path style="color-rendering:auto;text-decoration-color:#000000;color:#000000;isolation:auto;mix-blend-mode:normal;shape-rendering:auto;solid-color:#000000;text-decoration-line:none;text-decoration-style:solid;image-rendering:auto;white-space:normal;text-indent:0;text-transform:none" d="m439.92 49.559a5 5 0 0 0 -4.9233 5.0698v13.733h9.999v-13.733a5 5 0 0 0 -5.0757 -5.0698z"/>
       <path style="color-rendering:auto;text-decoration-color:#000000;color:#000000;isolation:auto;mix-blend-mode:normal;shape-rendering:auto;solid-color:#000000;text-decoration-line:none;text-decoration-style:solid;image-rendering:auto;white-space:normal;text-indent:0;text-transform:none" d="m459.92 49.559a5 5 0 0 0 -4.9233 5.0698v13.733h9.999v-13.733a5 5 0 0 0 -5.0757 -5.0698z"/>
      </g>
      <g fill-rule="evenodd" transform="rotate(-90 458.57 388.07)">
       <path style="color-rendering:auto;text-decoration-color:#000000;color:#000000;isolation:auto;mix-blend-mode:normal;shape-rendering:auto;solid-color:#000000;text-decoration-line:none;text-decoration-style:solid;image-rendering:auto;white-space:normal;text-indent:0;text-transform:none" d="m419.92 49.559a5 5 0 0 0 -4.9233 5.0698v13.733h9.999v-13.733a5 5 0 0 0 -5.0757 -5.0698z"/>
       <path style="color-rendering:auto;text-decoration-color:#000000;color:#000000;isolation:auto;mix-blend-mode:normal;shape-rendering:auto;solid-color:#000000;text-decoration-line:none;text-decoration-style:solid;image-rendering:auto;white-space:normal;text-indent:0;text-transform:none" d="m439.92 49.559a5 5 0 0 0 -4.9233 5.0698v13.733h9.999v-13.733a5 5 0 0 0 -5.0757 -5.0698z"/>
       <path style="color-rendering:auto;text-decoration-color:#000000;color:#000000;isolation:auto;mix-blend-mode:normal;shape-rendering:auto;solid-color:#000000;text-decoration-line:none;text-decoration-style:solid;image-rendering:auto;white-space:normal;text-indent:0;text-transform:none" d="m459.92 49.559a5 5 0 0 0 -4.9233 5.0698v13.733h9.999v-13.733a5 5 0 0 0 -5.0757 -5.0698z"/>
      </g>
      <g fill-rule="evenodd" transform="rotate(90 164.29 130.93)">
       <path style="color-rendering:auto;text-decoration-color:#000000;color:#000000;isolation:auto;mix-blend-mode:normal;shape-rendering:auto;solid-color:#000000;text-decoration-line:none;text-decoration-style:solid;image-rendering:auto;white-space:normal;text-indent:0;text-transform:none" d="m419.92 49.559a5 5 0 0 0 -4.9233 5.0698v13.733h9.999v-13.733a5 5 0 0 0 -5.0757 -5.0698z"/>
       <path style="color-rendering:auto;text-decoration-color:#000000;color:#000000;isolation:auto;mix-blend-mode:normal;shape-rendering:auto;solid-color:#000000;text-decoration-line:none;text-decoration-style:solid;image-rendering:auto;white-space:normal;text-indent:0;text-transform:none" d="m439.92 49.559a5 5 0 0 0 -4.9233 5.0698v13.733h9.999v-13.733a5 5 0 0 0 -5.0757 -5.0698z"/>
       <path style="color-rendering:auto;text-decoration-color:#000000;color:#000000;isolation:auto;mix-blend-mode:normal;shape-rendering:auto;solid-color:#000000;text-decoration-line:none;text-decoration-style:solid;image-rendering:auto;white-space:normal;text-indent:0;text-transform:none" d="m459.92 49.559a5 5 0 0 0 -4.9233 5.0698v13.733h9.999v-13.733a5 5 0 0 0 -5.0757 -5.0698z"/>
      </g>
     </g>
    </g>
   </g>
  </g>
  <g transform="translate(-249.98 -112.36)">
   <rect stroke-linejoin="round" height="60.611" width="59.512" stroke="#305680" stroke-linecap="round" y="317.15" x="-1733.1" stroke-width="3.2991" fill="none"/>
   <text style="word-spacing:0px;letter-spacing:0px;text-anchor:middle;text-align:center" font-weight="bold" xml:space="preserve" font-size="4.7686px" line-height="0%" y="328.57578" x="-1703.4806" font-family="Roboto" fill="#237de0"><tspan font-size="9.839px" line-height="1.25" y="328.57578" x="-1703.4806" stroke-width=".39738px">Device</tspan></text>
   <g fill="#305680" transform="matrix(.31358 0 0 .31358 -1660.7 219.67)">
    <g transform="translate(-318.77 19.031)" fill="#305680">
     <path style="color-rendering:auto;text-decoration-color:#000000;color:#000000;isolation:auto;mix-blend-mode:normal;shape-rendering:auto;solid-color:#000000;text-decoration-line:none;text-decoration-style:solid;image-rendering:auto;white-space:normal;text-indent:0;text-transform:none" d="m146.6 366.65c-2.065 0.0002-3.739 1.6742-3.7392 3.7392v72.522c0.00021 2.065 1.6742 3.739 3.7392 3.7392h72.522c2.065-0.00021 3.739-1.6742 3.7392-3.7392v-72.522c-0.00021-2.065-1.6742-3.739-3.7392-3.7392z"/>
     <g fill-rule="evenodd" transform="translate(-257.14 294.29)">
      <path style="color-rendering:auto;text-decoration-color:#000000;color:#000000;isolation:auto;mix-blend-mode:normal;shape-rendering:auto;solid-color:#000000;text-decoration-line:none;text-decoration-style:solid;image-rendering:auto;white-space:normal;text-indent:0;text-transform:none" d="m419.92 49.559a5 5 0 0 0 -4.9233 5.0698v13.733h9.999v-13.733a5 5 0 0 0 -5.0757 -5.0698z"/>
      <path style="color-rendering:auto;text-decoration-color:#000000;color:#000000;isolation:auto;mix-blend-mode:normal;shape-rendering:auto;solid-color:#000000;text-decoration-line:none;text-decoration-style:solid;image-rendering:auto;white-space:normal;text-indent:0;text-transform:none" d="m439.92 49.559a5 5 0 0 0 -4.9233 5.0698v13.733h9.999v-13.733a5 5 0 0 0 -5.0757 -5.0698z"/>
      <path style="color-rendering:auto;text-decoration-color:#000000;color:#000000;isolation:auto;mix-blend-mode:normal;shape-rendering:auto;solid-color:#000000;text-decoration-line:none;text-decoration-style:solid;image-rendering:auto;white-space:normal;text-indent:0;text-transform:none" d="m459.92 49.559a5 5 0 0 0 -4.9233 5.0698v13.733h9.999v-13.733a5 5 0 0 0 -5.0757 -5.0698z"/>
     </g>
     <g fill-rule="evenodd" transform="rotate(180 311.43 259.5)">
      <path style="color-rendering:auto;text-decoration-color:#000000;color:#000000;isolation:auto;mix-blend-mode:normal;shape-rendering:auto;solid-color:#000000;text-decoration-line:none;text-decoration-style:solid;image-rendering:auto;white-space:normal;text-indent:0;text-transform:none" d="m419.92 49.559a5 5 0 0 0 -4.9233 5.0698v13.733h9.999v-13.733a5 5 0 0 0 -5.0757 -5.0698z"/>
      <path style="color-rendering:auto;text-decoration-color:#000000;color:#000000;isolation:auto;mix-blend-mode:normal;shape-rendering:auto;solid-color:#000000;text-decoration-line:none;text-decoration-style:solid;image-rendering:auto;white-space:normal;text-indent:0;text-transform:none" d="m439.92 49.559a5 5 0 0 0 -4.9233 5.0698v13.733h9.999v-13.733a5 5 0 0 0 -5.0757 -5.0698z"/>
      <path style="color-rendering:auto;text-decoration-color:#000000;color:#000000;isolation:auto;mix-blend-mode:normal;shape-rendering:auto;solid-color:#000000;text-decoration-line:none;text-decoration-style:solid;image-rendering:auto;white-space:normal;text-indent:0;text-transform:none" d="m459.92 49.559a5 5 0 0 0 -4.9233 5.0698v13.733h9.999v-13.733a5 5 0 0 0 -5.0757 -5.0698z"/>
     </g>
     <g fill-rule="evenodd" transform="rotate(-90 458.57 388.07)">
      <path style="color-rendering:auto;text-decoration-color:#000000;color:#000000;isolation:auto;mix-blend-mode:normal;shape-rendering:auto;solid-color:#000000;text-decoration-line:none;text-decoration-style:solid;image-rendering:auto;white-space:normal;text-indent:0;text-transform:none" d="m419.92 49.559a5 5 0 0 0 -4.9233 5.0698v13.733h9.999v-13.733a5 5 0 0 0 -5.0757 -5.0698z"/>
      <path style="color-rendering:auto;text-decoration-color:#000000;color:#000000;isolation:auto;mix-blend-mode:normal;shape-rendering:auto;solid-color:#000000;text-decoration-line:none;text-decoration-style:solid;image-rendering:auto;white-space:normal;text-indent:0;text-transform:none" d="m439.92 49.559a5 5 0 0 0 -4.9233 5.0698v13.733h9.999v-13.733a5 5 0 0 0 -5.0757 -5.0698z"/>
      <path style="color-rendering:auto;text-decoration-color:#000000;color:#000000;isolation:auto;mix-blend-mode:normal;shape-rendering:auto;solid-color:#000000;text-decoration-line:none;text-decoration-style:solid;image-rendering:auto;white-space:normal;text-indent:0;text-transform:none" d="m459.92 49.559a5 5 0 0 0 -4.9233 5.0698v13.733h9.999v-13.733a5 5 0 0 0 -5.0757 -5.0698z"/>
     </g>
     <g fill-rule="evenodd" transform="rotate(90 164.29 130.93)">
      <path style="color-rendering:auto;text-decoration-color:#000000;color:#000000;isolation:auto;mix-blend-mode:normal;shape-rendering:auto;solid-color:#000000;text-decoration-line:none;text-decoration-style:solid;image-rendering:auto;white-space:normal;text-indent:0;text-transform:none" d="m419.92 49.559a5 5 0 0 0 -4.9233 5.0698v13.733h9.999v-13.733a5 5 0 0 0 -5.0757 -5.0698z"/>
      <path style="color-rendering:auto;text-decoration-color:#000000;color:#000000;isolation:auto;mix-blend-mode:normal;shape-rendering:auto;solid-color:#000000;text-decoration-line:none;text-decoration-style:solid;image-rendering:auto;white-space:normal;text-indent:0;text-transform:none" d="m439.92 49.559a5 5 0 0 0 -4.9233 5.0698v13.733h9.999v-13.733a5 5 0 0 0 -5.0757 -5.0698z"/>
      <path style="color-rendering:auto;text-decoration-color:#000000;color:#000000;isolation:auto;mix-blend-mode:normal;shape-rendering:auto;solid-color:#000000;text-decoration-line:none;text-decoration-style:solid;image-rendering:auto;white-space:normal;text-indent:0;text-transform:none" d="m459.92 49.559a5 5 0 0 0 -4.9233 5.0698v13.733h9.999v-13.733a5 5 0 0 0 -5.0757 -5.0698z"/>
     </g>
    </g>
   </g>
  </g>
  <g transform="translate(1.7769 15.474)">
   <g stroke-linejoin="round" stroke="#305680" stroke-linecap="round" stroke-width="3.2991" fill="#fff">
    <rect height="110.35" width="105.48" y="543.14" x="-2167.8"/>
    <rect height="110.35" width="105.48" y="532.73" x="-2179.6"/>
    <rect height="110.35" width="105.48" y="522.4" x="-2192.6"/>
   </g>
   <text stroke-width=".94650px" style="font-variant-ligatures:normal;letter-spacing:0px;font-variant-numeric:normal;text-anchor:middle;word-spacing:0px;font-variant-caps:normal;font-feature-settings:normal;text-align:center" font-family="Roboto" xml:space="preserve" font-size="16.564px" line-height="0%" y="541.15662" x="-2140.1655" font-weight="bold" fill="#237de0"><tspan style="font-variant-numeric:normal;text-anchor:middle;font-variant-ligatures:normal;font-variant-caps:normal;font-feature-settings:normal;text-align:center" line-height="1.25" y="541.15662" x="-2140.1655">Entity</tspan><tspan style="font-variant-numeric:normal;text-anchor:middle;font-variant-ligatures:normal;font-variant-caps:normal;font-feature-settings:normal;text-align:center" line-height="1.25" y="561.86133" x="-2140.1655">Group</tspan></text>
   <path d="m-2163.2 580.62h48.183v-5.3536h-48.183c-2.9443 0-5.3536 2.4091-5.3536 5.3536v32.122c0 2.9445 2.4093 5.3536 5.3536 5.3536h10.707v-5.3536h-10.707zm26.768 16.061h-10.707v4.7648c-1.6329 1.4723-2.6767 3.5602-2.6767 5.9426s1.0438 4.4703 2.6767 5.9426v4.7647h10.707v-4.7647c1.6329-1.4722 2.6768-3.587 2.6768-5.9426s-1.0439-4.4703-2.6768-5.9426zm-5.3537 14.723c-2.2217 0-4.015-1.7935-4.015-4.0152 0-2.2218 1.7933-4.0152 4.015-4.0152s4.0155 1.7935 4.0155 4.0152c0 2.2218-1.7938 4.0152-4.0155 4.0152zm29.445-25.43h-16.061c-1.3382 0-2.6767 1.3384-2.6767 2.6768v26.768c0 1.3384 1.3385 2.6768 2.6767 2.6768h16.061c1.3385 0 2.6768-1.3384 2.6768-2.6768v-26.768c0-1.3384-1.3383-2.6768-2.6768-2.6768zm-2.6768 26.768h-10.707v-21.415h10.707z" stroke-width="2.6768" fill="#305680"/>
  </g>
  <g transform="translate(-8.1236 50.331)">
   <rect stroke-linejoin="round" height="60.611" width="59.512" stroke="#305680" stroke-linecap="round" y="706.71" x="-2231.3" stroke-width="3.2991" fill="none"/>
   <text style="word-spacing:0px;letter-spacing:0px;text-anchor:middle;text-align:center" font-weight="bold" xml:space="preserve" font-size="4.7686px" line-height="0%" y="720.00745" x="-2201.6819" font-family="Roboto" fill="#237de0"><tspan font-size="9.839px" line-height="1.25" y="720.00745" x="-2201.6819" stroke-width=".39738px">Entity</tspan></text>
   <path d="m-2217 731.39h32.411v-3.6012h-32.411c-1.9805 0-3.6011 1.6205-3.6011 3.6012v21.607c0 1.9806 1.6206 3.6012 3.6011 3.6012h7.2024v-3.6012h-7.2024zm18.006 10.803h-7.2024v3.205c-1.0984 0.99034-1.8004 2.3948-1.8004 3.9973s0.702 3.007 1.8004 3.9973v3.205h7.2024v-3.205c1.0984-0.99031 1.8005-2.4128 1.8005-3.9973s-0.7021-3.007-1.8005-3.9973zm-3.6012 9.9032c-1.4944 0-2.7007-1.2064-2.7007-2.7009s1.2063-2.7009 2.7007-2.7009 2.701 1.2064 2.701 2.7009-1.2066 2.7009-2.701 2.7009zm19.806-17.106h-10.804c-0.9002 0-1.8006 0.90029-1.8006 1.8006v18.006c0 0.90029 0.9004 1.8006 1.8006 1.8006h10.804c0.9004 0 1.8005-0.90028 1.8005-1.8006v-18.006c0-0.9003-0.9001-1.8006-1.8005-1.8006zm-1.8005 18.006h-7.2025v-14.405h7.2025z" stroke-width="1.8006" fill="#305680"/>
   <g transform="translate(85.781)">
    <rect stroke-linejoin="round" height="60.611" width="59.512" stroke="#305680" stroke-linecap="round" y="706.71" x="-2231.3" stroke-width="3.2991" fill="none"/>
    <text style="word-spacing:0px;letter-spacing:0px;text-anchor:middle;text-align:center" font-weight="bold" xml:space="preserve" font-size="4.7686px" line-height="0%" y="720.00745" x="-2201.6819" font-family="Roboto" fill="#237de0"><tspan font-size="9.839px" line-height="1.25" y="720.00745" x="-2201.6819" stroke-width=".39738px">Entity</tspan></text>
    <path d="m-2217 731.39h32.411v-3.6012h-32.411c-1.9805 0-3.6011 1.6205-3.6011 3.6012v21.607c0 1.9806 1.6206 3.6012 3.6011 3.6012h7.2024v-3.6012h-7.2024zm18.006 10.803h-7.2024v3.205c-1.0984 0.99034-1.8004 2.3948-1.8004 3.9973s0.702 3.007 1.8004 3.9973v3.205h7.2024v-3.205c1.0984-0.99031 1.8005-2.4128 1.8005-3.9973s-0.7021-3.007-1.8005-3.9973zm-3.6012 9.9032c-1.4944 0-2.7007-1.2064-2.7007-2.7009s1.2063-2.7009 2.7007-2.7009 2.701 1.2064 2.701 2.7009-1.2066 2.7009-2.701 2.7009zm19.806-17.106h-10.804c-0.9002 0-1.8006 0.90029-1.8006 1.8006v18.006c0 0.90029 0.9004 1.8006 1.8006 1.8006h10.804c0.9004 0 1.8005-0.90028 1.8005-1.8006v-18.006c0-0.9003-0.9001-1.8006-1.8005-1.8006zm-1.8005 18.006h-7.2025v-14.405h7.2025z" stroke-width="1.8006" fill="#305680"/>
   </g>
   <g transform="translate(171.56)">
    <rect stroke-linejoin="round" height="60.611" width="59.512" stroke="#305680" stroke-linecap="round" y="706.71" x="-2231.3" stroke-width="3.2991" fill="none"/>
    <text style="word-spacing:0px;letter-spacing:0px;text-anchor:middle;text-align:center" font-weight="bold" xml:space="preserve" font-size="4.7686px" line-height="0%" y="720.00745" x="-2201.6819" font-family="Roboto" fill="#237de0"><tspan font-size="9.839px" line-height="1.25" y="720.00745" x="-2201.6819" stroke-width=".39738px">Entity</tspan></text>
    <path d="m-2217 731.39h32.411v-3.6012h-32.411c-1.9805 0-3.6011 1.6205-3.6011 3.6012v21.607c0 1.9806 1.6206 3.6012 3.6011 3.6012h7.2024v-3.6012h-7.2024zm18.006 10.803h-7.2024v3.205c-1.0984 0.99034-1.8004 2.3948-1.8004 3.9973s0.702 3.007 1.8004 3.9973v3.205h7.2024v-3.205c1.0984-0.99031 1.8005-2.4128 1.8005-3.9973s-0.7021-3.007-1.8005-3.9973zm-3.6012 9.9032c-1.4944 0-2.7007-1.2064-2.7007-2.7009s1.2063-2.7009 2.7007-2.7009 2.701 1.2064 2.701 2.7009-1.2066 2.7009-2.701 2.7009zm19.806-17.106h-10.804c-0.9002 0-1.8006 0.90029-1.8006 1.8006v18.006c0 0.90029 0.9004 1.8006 1.8006 1.8006h10.804c0.9004 0 1.8005-0.90028 1.8005-1.8006v-18.006c0-0.9003-0.9001-1.8006-1.8005-1.8006zm-1.8005 18.006h-7.2025v-14.405h7.2025z" stroke-width="1.8006" fill="#305680"/>
   </g>
  </g>
  <g transform="translate(247.5 -219.84)">
   <rect stroke-linejoin="round" height="60.611" width="59.512" stroke="#305680" stroke-linecap="round" y="706.71" x="-2231.3" stroke-width="3.2991" fill="none"/>
   <text style="word-spacing:0px;letter-spacing:0px;text-anchor:middle;text-align:center" font-weight="bold" xml:space="preserve" font-size="4.7686px" line-height="0%" y="720.00745" x="-2201.6819" font-family="Roboto" fill="#237de0"><tspan font-size="9.839px" line-height="1.25" y="720.00745" x="-2201.6819" stroke-width=".39738px">Entity</tspan></text>
   <path d="m-2217 731.39h32.411v-3.6012h-32.411c-1.9805 0-3.6011 1.6205-3.6011 3.6012v21.607c0 1.9806 1.6206 3.6012 3.6011 3.6012h7.2024v-3.6012h-7.2024zm18.006 10.803h-7.2024v3.205c-1.0984 0.99034-1.8004 2.3948-1.8004 3.9973s0.702 3.007 1.8004 3.9973v3.205h7.2024v-3.205c1.0984-0.99031 1.8005-2.4128 1.8005-3.9973s-0.7021-3.007-1.8005-3.9973zm-3.6012 9.9032c-1.4944 0-2.7007-1.2064-2.7007-2.7009s1.2063-2.7009 2.7007-2.7009 2.701 1.2064 2.701 2.7009-1.2066 2.7009-2.701 2.7009zm19.806-17.106h-10.804c-0.9002 0-1.8006 0.90029-1.8006 1.8006v18.006c0 0.90029 0.9004 1.8006 1.8006 1.8006h10.804c0.9004 0 1.8005-0.90028 1.8005-1.8006v-18.006c0-0.9003-0.9001-1.8006-1.8005-1.8006zm-1.8005 18.006h-7.2025v-14.405h7.2025z" stroke-width="1.8006" fill="#305680"/>
  </g>
  <path d="m-2068.4 376.06s63.41-0.24902 82.558-0.36894c-0.5922 1.4248-1.208 2.8434-1.796 4.2712 5.4524-2.267 10.897-4.5438 16.346-6.8172-5.646-1.895-11.311-3.7542-16.97-5.6219 0.7272 1.3791 1.4837 2.7487 2.2184 4.1254-19.148 0.13664-82.558 0.36785-82.558 0.36785z" stroke-width=".80556" fill="#305680"/>
  <g style="font-variant-ligatures:normal;letter-spacing:0px;font-variant-numeric:normal;word-spacing:0px;font-variant-caps:normal;font-feature-settings:normal" font-family="Roboto" transform="matrix(1.3087 0 0 1.3087 -1453.9 31.521)" line-height="125%" font-size="16.396px" font-weight="500" fill="#237de0">
   <text style="font-variant-ligatures:normal;letter-spacing:0px;font-variant-numeric:normal;text-anchor:middle;word-spacing:0px;font-variant-caps:normal;font-feature-settings:normal;text-align:center" font-family="Roboto" xml:space="preserve" font-size="11.505px" line-height="125%" y="254.09483" x="-438.92722" font-weight="500" fill="#237de0"><tspan style="font-variant-numeric:normal;text-anchor:middle;font-variant-ligatures:normal;font-variant-caps:normal;font-feature-settings:normal;text-align:center" font-family="Roboto" font-weight="500" font-size="11.505px" y="254.09483" x="-437.48911" stroke-width=".71904px" fill="#237de0">Command </tspan></text>
  </g>
  <path d="m-1828.7 386.19s49.072-0.19271 63.891-0.28552c-0.4583 1.1027-0.9349 2.2005-1.3899 3.3055 4.2196-1.7544 8.4332-3.5164 12.65-5.2758-4.3694-1.4666-8.7533-2.9054-13.134-4.3508 0.5628 1.0673 1.1483 2.1272 1.7169 3.1926-14.819 0.10574-63.892 0.28467-63.892 0.28467z" stroke-width=".62342" fill="#305680"/>
  <g style="font-variant-ligatures:normal;letter-spacing:0px;font-variant-numeric:normal;word-spacing:0px;font-variant-caps:normal;font-feature-settings:normal" font-family="Roboto" transform="matrix(1.1479 0 0 1.1479 -1294.5 85.423)" line-height="125%" font-size="16.396px" font-weight="500" fill="#237de0">
   <text style="font-variant-ligatures:normal;letter-spacing:0px;font-variant-numeric:normal;text-anchor:middle;word-spacing:0px;font-variant-caps:normal;font-feature-settings:normal;text-align:center" font-family="Roboto" xml:space="preserve" font-size="11.505px" line-height="125%" y="254.09483" x="-438.92722" font-weight="500" fill="#237de0"><tspan style="font-variant-numeric:normal;text-anchor:middle;font-variant-ligatures:normal;font-variant-caps:normal;font-feature-settings:normal;text-align:center" font-family="Roboto" font-weight="500" font-size="11.505px" y="254.09483" x="-437.48911" stroke-width=".71904px" fill="#237de0">Command </tspan></text>
  </g>
  <path d="m-1828.8 351.15s56.025-32.569 68.812-40.059c0.1544 1.1841 0.2906 2.3731 0.449 3.5576 2.7771-3.6292 5.5452-7.2619 8.3172-10.894-4.5173 0.91463-9.0333 1.8605-13.549 2.7989 1.0211 0.64288 2.0581 1.268 3.0832 1.9064-12.781 7.501-68.813 40.058-68.813 40.058z" stroke-width=".62342" fill="#305680"/>
  <g style="font-variant-ligatures:normal;letter-spacing:0px;font-variant-numeric:normal;word-spacing:0px;font-variant-caps:normal;font-feature-settings:normal" font-family="Roboto" transform="matrix(.99408 -.57393 .57393 .99408 -1510.1 -179.26)" line-height="125%" font-size="16.396px" font-weight="500" fill="#237de0">
   <text style="font-variant-ligatures:normal;letter-spacing:0px;font-variant-numeric:normal;text-anchor:middle;word-spacing:0px;font-variant-caps:normal;font-feature-settings:normal;text-align:center" font-family="Roboto" xml:space="preserve" font-size="11.505px" line-height="125%" y="254.09483" x="-438.92722" font-weight="500" fill="#237de0"><tspan style="font-variant-numeric:normal;text-anchor:middle;font-variant-ligatures:normal;font-variant-caps:normal;font-feature-settings:normal;text-align:center" font-family="Roboto" font-weight="500" font-size="11.505px" y="254.09483" x="-437.48911" stroke-width=".71904px" fill="#237de0">Command </tspan></text>
  </g>
  <path d="m-1830.4 416.94s56.218 32.235 69.098 39.564c-0.9483 0.72576-1.9099 1.4382-2.8565 2.1676 4.5315 0.59047 9.0616 1.1713 13.593 1.756-3.0508-3.4548-6.1279-6.8928-9.1986-10.335-0.046 1.2057-0.069 2.4164-0.1094 3.6234-12.886-7.3178-69.098-39.565-69.098-39.565z" stroke-width=".62342" fill="#305680"/>
  <g style="font-variant-ligatures:normal;letter-spacing:0px;font-variant-numeric:normal;word-spacing:0px;font-variant-caps:normal;font-feature-settings:normal" font-family="Roboto" transform="matrix(.99408 .57393 -.57393 .99408 -1219.3 424.31)" line-height="125%" font-size="16.396px" font-weight="500" fill="#237de0">
   <text style="font-variant-ligatures:normal;letter-spacing:0px;font-variant-numeric:normal;text-anchor:middle;word-spacing:0px;font-variant-caps:normal;font-feature-settings:normal;text-align:center" font-family="Roboto" xml:space="preserve" font-size="11.505px" line-height="125%" y="254.09483" x="-438.92722" font-weight="500" fill="#237de0"><tspan style="font-variant-numeric:normal;text-anchor:middle;font-variant-ligatures:normal;font-variant-caps:normal;font-feature-settings:normal;text-align:center" font-family="Roboto" font-weight="500" font-size="11.505px" y="254.09483" x="-437.48911" stroke-width=".71904px" fill="#237de0">Command </tspan></text>
  </g>
  <path d="m-2067.2 319.15s55.848-56.2 69.303-69.825c0.5888 1.4262 1.1565 2.8647 1.7504 4.2902 2.2524-5.4584 4.4925-10.918 6.7376-16.379-5.3324 2.6523-10.652 5.3432-15.975 8.0247 1.4894 0.46096 2.9927 0.89447 4.4857 1.3484-13.443 13.637-69.304 69.824-69.304 69.824z" stroke-width=".80556" fill="#305680"/>
  <g style="font-variant-ligatures:normal;letter-spacing:0px;font-variant-numeric:normal;word-spacing:0px;font-variant-caps:normal;font-feature-settings:normal" font-family="Roboto" transform="matrix(.92542 -.92542 .92542 .92542 -1876.6 -354.73)" line-height="125%" font-size="16.396px" font-weight="500" fill="#237de0">
   <text style="font-variant-ligatures:normal;letter-spacing:0px;font-variant-numeric:normal;text-anchor:middle;word-spacing:0px;font-variant-caps:normal;font-feature-settings:normal;text-align:center" font-family="Roboto" xml:space="preserve" font-size="11.505px" line-height="125%" y="254.09483" x="-438.92722" font-weight="500" fill="#237de0"><tspan style="font-variant-numeric:normal;text-anchor:middle;font-variant-ligatures:normal;font-variant-caps:normal;font-feature-settings:normal;text-align:center" font-family="Roboto" font-weight="500" font-size="11.505px" y="254.09483" x="-437.48911" stroke-width=".71904px" fill="#237de0">Command </tspan></text>
  </g>
  <path d="m-2070.2 438.66s56.2 55.848 69.825 69.303c-1.4262 0.5888-2.8647 1.1565-4.2901 1.7504 5.4584 2.2524 10.918 4.4925 16.378 6.7376-2.6523-5.3324-5.3432-10.652-8.0246-15.975-0.461 1.4894-0.8945 2.9927-1.3485 4.4857-13.637-13.443-69.824-69.304-69.824-69.304z" stroke-width=".80556" fill="#305680"/>
  <g style="font-variant-ligatures:normal;letter-spacing:0px;font-variant-numeric:normal;word-spacing:0px;font-variant-caps:normal;font-feature-settings:normal" font-family="Roboto" transform="matrix(1.3087 0 0 1.3087 -1438.5 95.041)" line-height="125%" font-size="16.396px" font-weight="500" fill="#237de0">
   <text stroke-width=".71904px" style="font-variant-ligatures:normal;letter-spacing:0px;font-variant-numeric:normal;text-anchor:middle;word-spacing:0px;font-variant-caps:normal;font-feature-settings:normal;text-align:center" font-family="Roboto" xml:space="preserve" transform="rotate(45)" line-height="125%" font-size="11.505px" y="504.08844" x="-121.79945" font-weight="500" fill="#237de0"><tspan style="font-variant-numeric:normal;text-anchor:middle;font-variant-ligatures:normal;font-variant-caps:normal;font-feature-settings:normal;text-align:center" y="504.08844" x="-121.79945">Update</tspan><tspan style="font-variant-numeric:normal;text-anchor:middle;font-variant-ligatures:normal;font-variant-caps:normal;font-feature-settings:normal;text-align:center" y="518.46954" x="-120.36134">Attributes </tspan></text>
  </g>
  <path d="m-2134.8 437.06s0.249 63.41 0.3689 82.558c-1.4248-0.5922-2.8433-1.208-4.2712-1.796 2.267 5.4524 4.5438 10.897 6.8172 16.346 1.895-5.646 3.7542-11.311 5.6219-16.97-1.3791 0.7272-2.7487 1.4837-4.1254 2.2184-0.1366-19.148-0.3678-82.558-0.3678-82.558z" stroke-width=".80556" fill="#305680"/>
  <g style="font-variant-ligatures:normal;letter-spacing:0px;font-variant-numeric:normal;word-spacing:0px;font-variant-caps:normal;font-feature-settings:normal" font-family="Roboto" transform="matrix(.92542 -.92542 .92542 .92542 -2010.1 -185.51)" line-height="125%" font-size="16.396px" font-weight="500" fill="#237de0">
   <text stroke-width=".71904px" style="font-variant-ligatures:normal;letter-spacing:0px;font-variant-numeric:normal;text-anchor:middle;word-spacing:0px;font-variant-caps:normal;font-feature-settings:normal;text-align:center" font-family="Roboto" xml:space="preserve" transform="rotate(45)" line-height="125%" font-size="11.505px" y="504.08844" x="-121.79945" font-weight="500" fill="#237de0"><tspan style="font-variant-numeric:normal;text-anchor:middle;font-variant-ligatures:normal;font-variant-caps:normal;font-feature-settings:normal;text-align:center" y="504.08844" x="-121.79945">Update</tspan><tspan style="font-variant-numeric:normal;text-anchor:middle;font-variant-ligatures:normal;font-variant-caps:normal;font-feature-settings:normal;text-align:center" y="518.46954" x="-120.36134">Attributes </tspan></text>
  </g>
  <g stroke-width=".62342" fill="#305680">
   <path d="m-2127.6 674.79s0.1928 49.072 0.2856 63.891c-1.1027-0.4583-2.2005-0.9349-3.3055-1.3899 1.7544 4.2196 3.5164 8.4332 5.2758 12.65 1.4665-4.3694 2.9053-8.7533 4.3507-13.134-1.0672 0.5628-2.1271 1.1483-3.1926 1.7169-0.1057-14.819-0.2846-63.892-0.2846-63.892z"/>
   <path d="m-2092.6 674.73s32.569 56.025 40.059 68.812c-1.1841 0.1544-2.3731 0.2906-3.5576 0.449 3.6291 2.7771 7.2619 5.5452 10.894 8.3172-0.9146-4.5173-1.8605-9.0333-2.7988-13.549-0.6429 1.0211-1.2681 2.0581-1.9065 3.0832-7.501-12.781-40.058-68.813-40.058-68.813z"/>
   <path d="m-2158.3 673.12s-32.235 56.218-39.564 69.098c-0.7258-0.9483-1.4383-1.9099-2.1677-2.8565-0.5905 4.5315-1.1713 9.0616-1.756 13.593 3.4548-3.0508 6.8929-6.1279 10.335-9.1986-1.2057-0.046-2.4163-0.069-3.6233-0.1094 7.3178-12.886 39.565-69.098 39.565-69.098z"/>
  </g>
  <g font-size="16.396px" font-family="Roboto" font-weight="500" fill="#237de0">
   <g style="font-variant-ligatures:normal;letter-spacing:0px;font-variant-numeric:normal;word-spacing:0px;font-variant-caps:normal;font-feature-settings:normal" transform="matrix(.59572 -.59572 .59572 .59572 -2047.5 287.6)" line-height="125%">
    <text stroke-width=".71904px" style="font-variant-ligatures:normal;letter-spacing:0px;font-variant-numeric:normal;text-anchor:middle;word-spacing:0px;font-variant-caps:normal;font-feature-settings:normal;text-align:center" font-family="Roboto" xml:space="preserve" transform="rotate(45)" line-height="125%" font-size="11.505px" y="504.08844" x="-121.79945" font-weight="500" fill="#237de0"><tspan style="font-variant-numeric:normal;text-anchor:middle;font-variant-ligatures:normal;font-variant-caps:normal;font-feature-settings:normal;text-align:center" y="504.08844" x="-121.79945">Update</tspan><tspan style="font-variant-numeric:normal;text-anchor:middle;font-variant-ligatures:normal;font-variant-caps:normal;font-feature-settings:normal;text-align:center" y="518.46954" x="-120.36134">Attributes </tspan></text>
   </g>
   <g style="font-variant-ligatures:normal;letter-spacing:0px;font-variant-numeric:normal;word-spacing:0px;font-variant-caps:normal;font-feature-settings:normal" transform="matrix(-.21805 -.81377 .81377 -.21805 -2511.4 400.18)" line-height="125%">
    <text stroke-width=".71904px" style="font-variant-ligatures:normal;letter-spacing:0px;font-variant-numeric:normal;text-anchor:middle;word-spacing:0px;font-variant-caps:normal;font-feature-settings:normal;text-align:center" font-family="Roboto" xml:space="preserve" transform="rotate(45)" line-height="125%" font-size="11.505px" y="504.08844" x="-121.79945" font-weight="500" fill="#237de0"><tspan style="font-variant-numeric:normal;text-anchor:middle;font-variant-ligatures:normal;font-variant-caps:normal;font-feature-settings:normal;text-align:center" y="504.08844" x="-121.79945">Update</tspan><tspan style="font-variant-numeric:normal;text-anchor:middle;font-variant-ligatures:normal;font-variant-caps:normal;font-feature-settings:normal;text-align:center" y="518.46954" x="-120.36134">Attributes </tspan></text>
   </g>
   <g style="font-variant-ligatures:normal;letter-spacing:0px;font-variant-numeric:normal;word-spacing:0px;font-variant-caps:normal;font-feature-settings:normal" transform="matrix(.81377 .21805 -.21805 .81377 -1635 578.99)" line-height="125%">
    <text stroke-width=".71904px" style="font-variant-ligatures:normal;letter-spacing:0px;font-variant-numeric:normal;text-anchor:middle;word-spacing:0px;font-variant-caps:normal;font-feature-settings:normal;text-align:center" font-family="Roboto" xml:space="preserve" transform="rotate(45)" line-height="125%" font-size="11.505px" y="504.08844" x="-121.79945" font-weight="500" fill="#237de0"><tspan style="font-variant-numeric:normal;text-anchor:middle;font-variant-ligatures:normal;font-variant-caps:normal;font-feature-settings:normal;text-align:center" y="504.08844" x="-121.79945">Update</tspan><tspan style="font-variant-numeric:normal;text-anchor:middle;font-variant-ligatures:normal;font-variant-caps:normal;font-feature-settings:normal;text-align:center" y="518.46954" x="-120.36134">Attributes </tspan></text>
   </g>
  </g>
  <path d="m-2130.2 315.87s-0.249-63.41-0.3689-82.558c1.4248 0.5922 2.8433 1.208 4.2712 1.796-2.267-5.4524-4.5438-10.897-6.8172-16.346-1.895 5.646-3.7542 11.311-5.6219 16.97 1.3791-0.7272 2.7487-1.4837 4.1254-2.2184 0.1366 19.148 0.3678 82.558 0.3678 82.558z" stroke-width=".80556" fill="#305680"/>
 </g>
</svg>
